<svg id="Layer_6" height="512" viewBox="0 0 32 32" width="512" xmlns="http://www.w3.org/2000/svg" data-name="Layer 6"><path d="m8.54 27.73h-5.33a3.2 3.2 0 0 1 -3.21-3.2v-.81a8.69 8.69 0 0 1 8.42-8.78 8.23 8.23 0 0 1 2 .21 1.07 1.07 0 1 1 -.48 2.08 6.08 6.08 0 0 0 -1.47-.15 6.56 6.56 0 0 0 -6.32 6.65v.81a1.07 1.07 0 0 0 1.07 1.07h5.32a1.07 1.07 0 1 1 0 2.13z"/><path d="m28.8 27.73h-5.41a1.07 1.07 0 1 1 0-2.13h5.41a1.07 1.07 0 0 0 1.07-1.07v-1.07a6.39 6.39 0 0 0 -7.79-6.24 1.07 1.07 0 1 1 -.47-2.08 8.52 8.52 0 0 1 10.39 8.32v1.07a3.2 3.2 0 0 1 -3.2 3.2z"/><path d="m23.47 13.87a5.33 5.33 0 1 1 5.33-5.33 5.34 5.34 0 0 1 -5.33 5.33zm0-8.53a3.2 3.2 0 1 0 3.2 3.2 3.2 3.2 0 0 0 -3.2-3.2z"/><path d="m8.54 13.87a5.33 5.33 0 1 1 5.33-5.33 5.34 5.34 0 0 1 -5.33 5.33zm0-8.53a3.2 3.2 0 1 0 3.2 3.2 3.2 3.2 0 0 0 -3.2-3.2z"/><path d="m16 28.8a6.4 6.4 0 1 1 6.4-6.4 6.4 6.4 0 0 1 -6.4 6.4zm0-10.66a4.26 4.26 0 1 0 4.26 4.26 4.27 4.27 0 0 0 -4.26-4.26z"/><path d="m17.6 21.34h-.53v-.53a1.07 1.07 0 0 0 -2.13 0v.53h-.54a1.07 1.07 0 0 0 0 2.13h.54v.53a1.07 1.07 0 0 0 2.13 0v-.53h.53a1.07 1.07 0 0 0 0-2.13z"/></svg>