<svg id="Layer_1" height="512" viewBox="0 0 36 36" width="512" xmlns="http://www.w3.org/2000/svg" data-name="Layer 1"><path d="m31.81 4.19a7.42 7.42 0 0 0 -5.28-2.19h-10.67a7.47 7.47 0 0 0 -7.4 6.47 7.47 7.47 0 0 0 -6.46 7.4v16a2.14 2.14 0 0 0 2.13 2.13h.53a2.15 2.15 0 0 0 1.71-.85l1.63-2.15a3.22 3.22 0 0 1 2.56-1.28h9.6a7.47 7.47 0 0 0 7.24-5.72 3.14 3.14 0 0 1 .62.63l1.6 2.14a2.14 2.14 0 0 0 1.71.85h.53a2.14 2.14 0 0 0 2.14-2.15v-16a7.42 7.42 0 0 0 -2.19-5.28zm-6.34 17.55c-.09 1.84-.15 2.89-1.56 4.3a5.3 5.3 0 0 1 -3.77 1.56h-9.6a5.36 5.36 0 0 0 -4.27 2.13l-1.6 2.13h-.54v-16a5.33 5.33 0 0 1 5.33-5.33h10.67a5.33 5.33 0 0 1 5.33 5.33zm6.4 3.73h-.53l-1.6-2.13a5.33 5.33 0 0 0 -2.13-1.68v-5.79a7.47 7.47 0 0 0 -7.48-7.47h-9.49a5.34 5.34 0 0 1 5.23-4.27h10.66a5.33 5.33 0 0 1 5.33 5.33z"/><path d="m9.47 20.13h6.4v2.13h-6.4z"/><path d="m9.47 15.87h10.67v2.13h-10.67z"/></svg>