<svg id="Layer_1" height="512" viewBox="0 0 32 32" width="512" xmlns="http://www.w3.org/2000/svg" data-name="Layer 1"><path d="m28.8 28.8h-25.6a3.2 3.2 0 0 1 -3.2-3.2v-10.67a3.2 3.2 0 0 1 3.2-3.2h25.6a3.2 3.2 0 0 1 3.2 3.2v10.67a3.2 3.2 0 0 1 -3.2 3.2zm-25.6-14.93a1.07 1.07 0 0 0 -1.07 1.07v10.66a1.07 1.07 0 0 0 1.07 1.07h25.6a1.07 1.07 0 0 0 1.07-1.07v-10.67a1.07 1.07 0 0 0 -1.07-1.07z"/><path d="m27.73 9.6h-23.46a1.07 1.07 0 1 1 0-2.13h23.46a1.07 1.07 0 1 1 0 2.13z"/><path d="m25.6 5.33h-19.2a1.07 1.07 0 1 1 0-2.13h19.2a1.07 1.07 0 1 1 0 2.13z"/><path d="m16 24.53a4.27 4.27 0 1 1 4.27-4.27 4.27 4.27 0 0 1 -4.27 4.27zm0-6.4a2.13 2.13 0 1 0 2.13 2.13 2.14 2.14 0 0 0 -2.13-2.13z"/></svg>