<svg id="Layer_1" height="512" viewBox="0 0 36 36" width="512" xmlns="http://www.w3.org/2000/svg" data-name="Layer 1"><path d="m18 18c-4.15 0-7.37-4.64-7.37-8.63a7.37 7.37 0 1 1 14.74 0c0 3.99-3.22 8.63-7.37 8.63zm0-13.87a5.24 5.24 0 0 0 -5.24 5.24c0 2.92 2.42 6.5 5.24 6.5s5.24-3.57 5.24-6.5a5.24 5.24 0 0 0 -5.24-5.24z"/><path d="m30.8 34h-25.6a1.07 1.07 0 0 1 -1.07-1.07v-3.2a9.66 9.66 0 0 1 2.81-6.79 9.53 9.53 0 0 1 6.79-2.81 1.07 1.07 0 0 1 .76.31l2.76 2.76a1.1 1.1 0 0 0 1.51 0l2.76-2.76a1.07 1.07 0 0 1 .75-.31 9.53 9.53 0 0 1 6.79 2.81 9.66 9.66 0 0 1 2.81 6.79v3.2a1.07 1.07 0 0 1 -1.07 1.07zm-24.53-2.13h23.46v-2.14a7.47 7.47 0 0 0 -7-7.45l-1.8 1.8-.63.63a3.29 3.29 0 0 1 -4.52 0l-2.48-2.43a7.41 7.41 0 0 0 -4.85 2.18 7.51 7.51 0 0 0 -2.19 5.28z"/></svg>