<svg id="Layer_1" height="512" viewBox="0 0 36 36" width="512" xmlns="http://www.w3.org/2000/svg" data-name="Layer 1"><path d="m31.78 7.74h-4a3.89 3.89 0 0 0 .46-1.81 3.94 3.94 0 0 0 -3.92-3.93h-2.87a4.49 4.49 0 0 0 -3.45 1.63 4.49 4.49 0 0 0 -3.45-1.63h-2.87a3.94 3.94 0 0 0 -3.94 3.94 3.89 3.89 0 0 0 .46 1.8h-4a2.22 2.22 0 0 0 -2.2 2.26v4.59a2.22 2.22 0 0 0 2.22 2.22h.08v12.68a4.52 4.52 0 0 0 4.51 4.51h18.38a4.52 4.52 0 0 0 4.51-4.51v-12.72h.08a2.22 2.22 0 0 0 2.22-2.22v-4.55a2.22 2.22 0 0 0 -2.22-2.26zm-10.33-3.61h2.87a1.81 1.81 0 1 1 0 3.61h-5.25v-1.23a2.38 2.38 0 0 1 2.38-2.38zm-11.57 1.81a1.81 1.81 0 0 1 1.81-1.81h2.87a2.38 2.38 0 0 1 2.38 2.38v1.23h-5.26a1.81 1.81 0 0 1 -1.8-1.8zm-1.07 25.93a2.38 2.38 0 0 1 -2.38-2.38v-12.72h7.06v15.1zm6.81 0v-15.1h4.76v15.1zm13.95-2.38a2.38 2.38 0 0 1 -2.38 2.38h-4.68v-15.1h7.06zm2.3-14.93a.08.08 0 0 1 -.08.08h-27.57a.08.08 0 0 1 -.08-.08v-4.56a.08.08 0 0 1 .08-.08h27.56a.08.08 0 0 1 .08.08z"/></svg>