<svg id="Layer_1" height="512" viewBox="0 0 36 36" width="512" xmlns="http://www.w3.org/2000/svg" data-name="Layer 1"><path d="m18 9.47a8.53 8.53 0 1 0 8.53 8.53 8.54 8.54 0 0 0 -8.53-8.53zm3.7 3.32-2.33 2.33a3.09 3.09 0 0 0 -2.74 0l-2.33-2.33a6.36 6.36 0 0 1 7.4 0zm-4.77 5.21a1.07 1.07 0 1 1 1.07 1.07 1.07 1.07 0 0 1 -1.07-1.07zm-4.14-3.7 2.33 2.33a3.09 3.09 0 0 0 0 2.74l-2.33 2.33a6.36 6.36 0 0 1 0-7.4zm1.51 8.91 2.33-2.33a3.09 3.09 0 0 0 2.74 0l2.33 2.33a6.36 6.36 0 0 1 -7.4 0zm8.91-1.51-2.33-2.33a3.09 3.09 0 0 0 0-2.74l2.33-2.33a6.36 6.36 0 0 1 0 7.4z"/><path d="m18 2a16 16 0 1 0 16 16 16 16 0 0 0 -16-16zm0 29.87a13.87 13.87 0 1 1 13.87-13.87 13.88 13.88 0 0 1 -13.87 13.87z"/></svg>