<svg id="Layer_1" height="512" viewBox="0 0 36 36" width="512" xmlns="http://www.w3.org/2000/svg" data-name="Layer 1"><path d="m32.46 21-.65-.43a1.07 1.07 0 0 0 -1.1-.05l-8.5 4.61a1.67 1.67 0 0 1 -1.56 0 3.14 3.14 0 0 0 -1.5-3l-2.29-1.38a5.33 5.33 0 0 0 -5.42-.05l-4.11 2.43v-.86a1.07 1.07 0 0 0 -1.06-1.07h-3.2a1.07 1.07 0 0 0 -1.07 1.07v10.66a1.07 1.07 0 0 0 1.07 1.07h3.2a1.07 1.07 0 0 0 1.07-1.07h4.45.35l7.72.86a5.33 5.33 0 0 0 3.73-1l9-6.53a3.2 3.2 0 0 0 -.13-5.26zm-27.26 10.87h-1.07v-8.54h1.07zm26.12-7.3-9 6.53a3.18 3.18 0 0 1 -2.24.59l-7.72-.86a5.08 5.08 0 0 0 -.59 0h-4.44v-5.36a1.08 1.08 0 0 0 .46-.14l4.71-2.72a3.2 3.2 0 0 1 3.25 0l2.25 1.39a1 1 0 0 1 -.88 1.8l-2.61-1-.79 2 2.62 1a3.15 3.15 0 0 0 3.36-.68 3.79 3.79 0 0 0 3.53-.12l7.94-4.3a1.13 1.13 0 0 1 .59.94 1.07 1.07 0 0 1 -.44.92z"/><path d="m22.43 21.08h-2.13v-1.14h-1.74v-2.13h3.59a1.09 1.09 0 0 0 0-2.18h-1.43a3.22 3.22 0 0 1 -.35-6.43v-1.2h2.13v1.19h1.81v2.13h-3.59a1.09 1.09 0 0 0 0 2.18h1.44a3.22 3.22 0 0 1 .28 6.43z"/><path d="m9.45 18.33a12.56 12.56 0 1 1 24 0l-2-.64a10.43 10.43 0 1 0 -19.9 0z"/></svg>