<svg id="Capa_1" enable-background="new 0 0 510 510" height="512" viewBox="0 0 510 510" width="512" xmlns="http://www.w3.org/2000/svg" xmlns:xlink="http://www.w3.org/1999/xlink"><linearGradient id="lg1"><stop offset="0" stop-color="#ffdfcf"/><stop offset="1" stop-color="#ffa78f"/></linearGradient><linearGradient id="SVGID_1_" gradientUnits="userSpaceOnUse" x1="10.977" x2="40.983" xlink:href="#lg1" y1="218.858" y2="248.864"/><linearGradient id="SVGID_2_" gradientUnits="userSpaceOnUse" x1="220.792" x2="262.779" xlink:href="#lg1" y1="213.159" y2="255.146"/><linearGradient id="lg2"><stop offset="0" stop-color="#ca6e59" stop-opacity="0"/><stop offset="1" stop-color="#883f2e"/></linearGradient><linearGradient id="SVGID_3_" gradientUnits="userSpaceOnUse" x1="252.75" x2="227.73" xlink:href="#lg2" y1="234.987" y2="234.987"/><linearGradient id="SVGID_4_" gradientUnits="userSpaceOnUse" x1="300.16" x2="381.743" y1="304.555" y2="534.468"><stop offset="0" stop-color="#ccfc5c"/><stop offset=".1591" stop-color="#c6f95a"/><stop offset=".3653" stop-color="#b6f053"/><stop offset=".5975" stop-color="#9be248"/><stop offset=".8469" stop-color="#76cf38"/><stop offset="1" stop-color="#5cc12d"/></linearGradient><linearGradient id="lg3"><stop offset="0" stop-color="#5cc12d" stop-opacity="0"/><stop offset=".6065" stop-color="#61942d" stop-opacity=".607"/><stop offset="1" stop-color="#647c2d"/></linearGradient><linearGradient id="SVGID_5_" gradientUnits="userSpaceOnUse" x1="375.137" x2="375.137" xlink:href="#lg3" y1="404.562" y2="535.271"/><linearGradient id="SVGID_6_" gradientUnits="userSpaceOnUse" x1="306.341" x2="204.008" xlink:href="#lg3" y1="422.375" y2="403.375"/><linearGradient id="SVGID_7_" gradientUnits="userSpaceOnUse" x1="410.128" x2="410.128" xlink:href="#lg3" y1="439.735" y2="259.486"/><linearGradient id="lg4"><stop offset="0" stop-color="#f1b0a2"/><stop offset="1" stop-color="#ca6e59"/></linearGradient><linearGradient id="SVGID_8_" gradientUnits="userSpaceOnUse" x1="253.256" x2="283.261" xlink:href="#lg4" y1="218.858" y2="248.864"/><linearGradient id="SVGID_9_" gradientUnits="userSpaceOnUse" x1="461.066" x2="503.053" xlink:href="#lg4" y1="213.159" y2="255.146"/><linearGradient id="SVGID_10_" gradientUnits="userSpaceOnUse" x1="503.845" x2="475.298" xlink:href="#lg2" y1="234.987" y2="234.987"/><linearGradient id="SVGID_11_" gradientUnits="userSpaceOnUse" x1="316.588" x2="461.205" xlink:href="#lg4" y1="176.438" y2="321.056"/><linearGradient id="lg5"><stop offset="0" stop-color="#7a6d79"/><stop offset="1" stop-color="#554e56"/></linearGradient><linearGradient id="SVGID_12_" gradientUnits="userSpaceOnUse" x1="323.282" x2="405.63" xlink:href="#lg5" y1="78.628" y2="199.445"/><linearGradient id="SVGID_13_" gradientUnits="userSpaceOnUse" x1="311.62" x2="342.984" xlink:href="#lg5" y1="234.987" y2="234.987"/><linearGradient id="SVGID_14_" gradientUnits="userSpaceOnUse" x1="407.29" x2="438.654" xlink:href="#lg5" y1="234.987" y2="234.987"/><linearGradient id="SVGID_15_" gradientUnits="userSpaceOnUse" x1="103.265" x2="167.245" y1="342.228" y2="522.535"><stop offset="0" stop-color="#89e2ff"/><stop offset="1" stop-color="#3fa9f5"/></linearGradient><linearGradient id="lg6"><stop offset="0" stop-color="#2740b0" stop-opacity="0"/><stop offset=".2879" stop-color="#243ca6" stop-opacity=".288"/><stop offset=".7742" stop-color="#1d308c" stop-opacity=".774"/><stop offset="1" stop-color="#192a7d"/></linearGradient><linearGradient id="SVGID_16_" gradientUnits="userSpaceOnUse" x1="115.764" x2="-37.569" xlink:href="#lg6" y1="367.157" y2="240.824"/><linearGradient id="SVGID_17_" gradientUnits="userSpaceOnUse" x1="134.863" x2="134.863" xlink:href="#lg6" y1="406.062" y2="554.677"/><linearGradient id="SVGID_18_" gradientUnits="userSpaceOnUse" x1="29.874" x2="56.6" xlink:href="#lg1" y1="343.55" y2="370.276"/><linearGradient id="SVGID_19_" gradientUnits="userSpaceOnUse" x1="177.658" x2="140.158" xlink:href="#lg6" y1="427.452" y2="172.953"/><linearGradient id="SVGID_20_" gradientUnits="userSpaceOnUse" x1="76.314" x2="220.931" xlink:href="#lg1" y1="176.438" y2="321.056"/><linearGradient id="SVGID_21_" gradientUnits="userSpaceOnUse" x1="71.346" x2="102.71" xlink:href="#lg5" y1="234.987" y2="234.987"/><linearGradient id="SVGID_22_" gradientUnits="userSpaceOnUse" x1="167.016" x2="198.38" xlink:href="#lg5" y1="234.987" y2="234.987"/><linearGradient id="lg7"><stop offset="0" stop-color="#f5f173"/><stop offset="1" stop-color="#fbb03b"/></linearGradient><linearGradient id="SVGID_23_" gradientUnits="userSpaceOnUse" x1="143.942" x2="179.275" xlink:href="#lg7" y1="97.795" y2="187.795"/><linearGradient id="SVGID_24_" gradientUnits="userSpaceOnUse" x1="25.261" x2="63.261" xlink:href="#lg7" y1="127.968" y2="193.968"/><g><g><path d="m0 234.987c0-17.642 12.246-32.424 28.702-36.309 4.399-1.038 8.603 2.363 8.603 6.883v58.852c0 4.52-4.205 7.921-8.603 6.883-16.456-3.885-28.702-18.667-28.702-36.309z" fill="url(#SVGID_1_)"/><path d="m269.726 234.987c0-17.642-12.246-32.424-28.702-36.309-4.399-1.038-8.603 2.363-8.603 6.883v58.852c0 4.52 4.205 7.921 8.603 6.883 16.456-3.885 28.702-18.667 28.702-36.309z" fill="url(#SVGID_2_)"/><path d="m269.726 234.987c0-17.642-12.246-32.424-28.702-36.309-4.399-1.038-8.603 2.363-8.603 6.883v58.852c0 4.52 4.205 7.921 8.603 6.883 16.456-3.885 28.702-18.667 28.702-36.309z" fill="url(#SVGID_3_)"/></g><g><path d="m403.286 322.584h-243.395v69.333h87.959c-4.117 11.282-6.365 23.463-6.365 36.17v35.003h254.76c6.928 0 12.544-5.616 12.544-12.544v-22.459c0-58.267-47.236-105.503-105.503-105.503z" fill="url(#SVGID_4_)"/><path d="m268.515 463.09h213.244v-105.514c-19.313-21.48-47.314-34.991-78.473-34.991h-56.298c-31.16 0-59.16 13.512-78.473 34.991z" fill="url(#SVGID_5_)"/><path d="m241.485 357.576v105.514h105.515z" fill="url(#SVGID_6_)"/><path d="m445.838 463.09h50.407c6.928 0 12.544-5.616 12.544-12.544v-22.459c0-58.268-47.235-105.503-105.503-105.503h-56.298c-12.464 0-24.42 2.168-35.52 6.136z" fill="url(#SVGID_7_)"/></g><g><g><path d="m242.279 234.987c0-17.642 12.247-32.424 28.702-36.309 4.398-1.038 8.603 2.363 8.603 6.883v58.852c0 4.52-4.205 7.921-8.603 6.883-16.456-3.885-28.702-18.667-28.702-36.309z" fill="url(#SVGID_8_)"/><path d="m510 234.987c0-17.642-12.246-32.424-28.702-36.309-4.399-1.038-8.603 2.363-8.603 6.883v58.852c0 4.52 4.205 7.921 8.603 6.883 16.456-3.885 28.702-18.667 28.702-36.309z" fill="url(#SVGID_9_)"/><path d="m510 234.987c0-17.642-12.246-32.424-28.702-36.309-4.399-1.038-8.603 2.363-8.603 6.883v58.852c0 4.52 4.205 7.921 8.603 6.883 16.456-3.885 28.702-18.667 28.702-36.309z" fill="url(#SVGID_10_)"/></g><ellipse cx="375.137" cy="234.987" fill="url(#SVGID_11_)" rx="107.248" ry="116.465"/><path d="m506.159 152.72c0-7.683-3.21-14.616-8.361-19.533-4.245-4.052-5.763-10.297-3.813-15.832 1.61-4.568 2.32-9.56 1.915-14.766-1.276-16.419-13.879-30.032-30.15-32.575-1.583-.247-3.15-.387-4.693-.427-5.307-.136-10.073-3-12.83-7.537-4.736-7.793-13.305-12.998-23.09-12.998-5.166 0-9.991 1.452-14.092 3.97-4.931 3.027-11.208 3.122-16.019-.092-5.691-3.803-12.53-6.021-19.889-6.021s-14.198 2.218-19.889 6.021c-4.811 3.214-11.088 3.119-16.019.092-4.101-2.518-8.926-3.97-14.092-3.97-9.785 0-18.355 5.205-23.09 12.998-2.757 4.537-7.524 7.401-12.832 7.537-1.541.04-3.105.179-4.686.426-16.271 2.54-28.876 16.15-30.155 32.568-.406 5.207.304 10.201 1.914 14.77 1.951 5.537.431 11.784-3.815 15.838-5.15 4.916-8.358 11.848-8.358 19.53 0 9.169 4.572 17.267 11.559 22.145 7.676 5.359 12.215 14.159 12.215 23.521v36.602c0-35.856 9.718-65.956 107.248-65.956s107.248 30.099 107.248 65.956v-36.602c0-9.362 4.539-18.162 12.215-23.521 6.988-4.877 11.559-12.975 11.559-22.144z" fill="url(#SVGID_12_)"/><g><path d="m327.302 254.69c-8.661 0-15.682-7.021-15.682-15.682v-8.042c0-8.661 7.021-15.682 15.682-15.682 8.661 0 15.682 7.021 15.682 15.682v8.042c0 8.661-7.021 15.682-15.682 15.682z" fill="url(#SVGID_13_)"/><path d="m422.972 254.69c-8.661 0-15.682-7.021-15.682-15.682v-8.042c0-8.661 7.021-15.682 15.682-15.682 8.661 0 15.682 7.021 15.682 15.682v8.042c0 8.661-7.021 15.682-15.682 15.682z" fill="url(#SVGID_14_)"/></g></g><path d="m268.515 463.09h-254.76c-6.928 0-12.544-5.616-12.544-12.544v-22.459c0-58.268 47.235-105.503 105.503-105.503h56.298c58.268 0 105.503 47.235 105.503 105.503z" fill="url(#SVGID_15_)"/><path d="m268.51 428.086v35h-175.53l-80.17-80.16v-2.98c3.75-7.3 8.33-14.11 13.62-20.3 19.34-22.68 48.13-37.06 80.28-37.06h56.3c58.27 0 105.5 47.229 105.5 105.5z" fill="url(#SVGID_16_)"/><path d="m28.241 463.09h213.244v-105.514c-19.313-21.48-47.314-34.991-78.473-34.991h-56.298c-31.16 0-59.16 13.512-78.473 34.991z" fill="url(#SVGID_17_)"/><path d="m60.772 374.447c-11.124 11.124-26.663 15.141-40.976 12.051-12.107-2.614-16.283-17.842-7.525-26.601l33.95-33.95c8.758-8.758 23.987-4.582 26.601 7.525 3.09 14.312-.927 29.852-12.05 40.975z" fill="url(#SVGID_18_)"/><path d="m205.564 463.09h62.951v-35.003c0-58.268-47.235-105.503-105.503-105.503h-56.298c-12.464 0-24.42 2.168-35.52 6.136z" fill="url(#SVGID_19_)"/><ellipse cx="134.863" cy="234.987" fill="url(#SVGID_20_)" rx="107.248" ry="116.465"/><g><path d="m87.028 254.69c-8.661 0-15.682-7.021-15.682-15.682v-8.042c0-8.661 7.021-15.682 15.682-15.682 8.661 0 15.682 7.021 15.682 15.682v8.042c0 8.661-7.021 15.682-15.682 15.682z" fill="url(#SVGID_21_)"/><path d="m182.698 254.69c-8.661 0-15.682-7.021-15.682-15.682v-8.042c0-8.661 7.021-15.682 15.682-15.682 8.661 0 15.682 7.021 15.682 15.682v8.042c0 8.661-7.021 15.682-15.682 15.682z" fill="url(#SVGID_22_)"/></g><g><path d="m260.213 179.869c-15.537 35.38-73.603 44.093-129.693 19.461s-88.965-73.282-73.427-108.663 73.603-44.093 129.693-19.461 88.965 73.282 73.427 108.663z" fill="url(#SVGID_23_)"/><ellipse cx="43.316" cy="159.327" fill="url(#SVGID_24_)" rx="43.316" ry="56.558"/></g></g></svg>