<svg id="Capa_1" enable-background="new 0 0 510 510" height="512" viewBox="0 0 510 510" width="512" xmlns="http://www.w3.org/2000/svg" xmlns:xlink="http://www.w3.org/1999/xlink"><linearGradient id="lg1"><stop offset="0" stop-color="#7a8c98"/><stop offset="1" stop-color="#465a61"/></linearGradient><linearGradient id="SVGID_1_" gradientUnits="userSpaceOnUse" x1="128.326" x2="320.582" xlink:href="#lg1" y1="179.156" y2="371.411"/><linearGradient id="lg2"><stop offset="0" stop-color="#465a61" stop-opacity="0"/><stop offset=".4733" stop-color="#454e51" stop-opacity=".473"/><stop offset="1" stop-color="#444"/></linearGradient><linearGradient id="SVGID_2_" gradientUnits="userSpaceOnUse" x1="158.483" x2="126.983" xlink:href="#lg2" y1="304.852" y2="306.852"/><linearGradient id="SVGID_3_" gradientUnits="userSpaceOnUse" x1="261.457" x2="229.957" xlink:href="#lg2" y1="305.419" y2="307.419"/><linearGradient id="SVGID_4_" gradientUnits="userSpaceOnUse" x1="368.415" x2="336.915" xlink:href="#lg2" y1="305.734" y2="307.734"/><linearGradient id="SVGID_5_" gradientUnits="userSpaceOnUse" x1="255" x2="255" xlink:href="#lg2" y1="239.333" y2="189.96"/><linearGradient id="lg3"><stop offset="0" stop-color="#ffdfcf"/><stop offset="1" stop-color="#9e9797"/></linearGradient><linearGradient id="SVGID_6_" gradientUnits="userSpaceOnUse" x1="166" x2="236.029" xlink:href="#lg3" y1="306.5" y2="306.5"/><linearGradient id="lg4"><stop offset="0" stop-color="#9e9797" stop-opacity="0"/><stop offset=".3691" stop-color="#938c8c" stop-opacity=".369"/><stop offset="1" stop-color="#766e6e"/></linearGradient><linearGradient id="SVGID_7_" gradientUnits="userSpaceOnUse" x1="211.293" x2="60.626" xlink:href="#lg4" y1="308.154" y2="354.821"/><linearGradient id="SVGID_8_" gradientUnits="userSpaceOnUse" x1="191.856" x2="265.189" xlink:href="#lg4" y1="307.739" y2="321.739"/><linearGradient id="SVGID_9_" gradientUnits="userSpaceOnUse" x1="202.565" x2="202.565" xlink:href="#lg4" y1="298.667" y2="161.638"/><linearGradient id="SVGID_10_" gradientUnits="userSpaceOnUse" x1="201" x2="201" xlink:href="#lg4" y1="364.667" y2="411.505"/><linearGradient id="SVGID_11_" gradientUnits="userSpaceOnUse" x1="204" x2="204" xlink:href="#lg3" y1="396.5" y2="445.663"/><linearGradient id="SVGID_12_" gradientUnits="userSpaceOnUse" x1="202.5" x2="202.5" xlink:href="#lg3" y1="171" y2="238.007"/><linearGradient id="SVGID_13_" gradientUnits="userSpaceOnUse" x1="202.5" x2="202.5" xlink:href="#lg4" y1="209.5" y2="187"/><linearGradient id="SVGID_14_" gradientUnits="userSpaceOnUse" x1="61" x2="131.029" xlink:href="#lg3" y1="306.5" y2="306.5"/><linearGradient id="SVGID_15_" gradientUnits="userSpaceOnUse" x1="106.293" x2="-44.375" xlink:href="#lg4" y1="308.154" y2="354.821"/><linearGradient id="SVGID_16_" gradientUnits="userSpaceOnUse" x1="86.856" x2="160.189" xlink:href="#lg4" y1="307.739" y2="321.739"/><linearGradient id="SVGID_17_" gradientUnits="userSpaceOnUse" x1="97.565" x2="97.565" xlink:href="#lg4" y1="298.667" y2="161.638"/><linearGradient id="SVGID_18_" gradientUnits="userSpaceOnUse" x1="96" x2="96" xlink:href="#lg4" y1="364.667" y2="411.505"/><linearGradient id="SVGID_19_" gradientUnits="userSpaceOnUse" x1="97.5" x2="97.5" xlink:href="#lg3" y1="391" y2="463.111"/><linearGradient id="SVGID_20_" gradientUnits="userSpaceOnUse" x1="97.5" x2="97.5" xlink:href="#lg3" y1="171" y2="238.007"/><linearGradient id="SVGID_21_" gradientUnits="userSpaceOnUse" x1="97.5" x2="97.5" xlink:href="#lg4" y1="209.5" y2="187"/><linearGradient id="SVGID_22_" gradientUnits="userSpaceOnUse" x1="376" x2="446.029" xlink:href="#lg3" y1="306.5" y2="306.5"/><linearGradient id="SVGID_23_" gradientUnits="userSpaceOnUse" x1="421.293" x2="270.626" xlink:href="#lg4" y1="308.154" y2="354.821"/><linearGradient id="SVGID_24_" gradientUnits="userSpaceOnUse" x1="401.856" x2="475.189" xlink:href="#lg4" y1="307.739" y2="321.739"/><linearGradient id="SVGID_25_" gradientUnits="userSpaceOnUse" x1="412.565" x2="412.565" xlink:href="#lg4" y1="298.667" y2="161.638"/><linearGradient id="SVGID_26_" gradientUnits="userSpaceOnUse" x1="411" x2="411" xlink:href="#lg4" y1="364.667" y2="411.505"/><linearGradient id="SVGID_27_" gradientUnits="userSpaceOnUse" x1="410" x2="410" xlink:href="#lg3" y1="396.5" y2="445.663"/><linearGradient id="SVGID_28_" gradientUnits="userSpaceOnUse" x1="412.5" x2="412.5" xlink:href="#lg3" y1="171" y2="238.007"/><linearGradient id="SVGID_29_" gradientUnits="userSpaceOnUse" x1="412.5" x2="412.5" xlink:href="#lg4" y1="209.5" y2="187"/><linearGradient id="SVGID_30_" gradientUnits="userSpaceOnUse" x1="271" x2="341.029" xlink:href="#lg3" y1="306.5" y2="306.5"/><linearGradient id="SVGID_31_" gradientUnits="userSpaceOnUse" x1="316.293" x2="165.626" xlink:href="#lg4" y1="308.154" y2="354.821"/><linearGradient id="SVGID_32_" gradientUnits="userSpaceOnUse" x1="296.856" x2="370.189" xlink:href="#lg4" y1="307.739" y2="321.739"/><linearGradient id="SVGID_33_" gradientUnits="userSpaceOnUse" x1="307.565" x2="307.565" xlink:href="#lg4" y1="298.667" y2="161.638"/><linearGradient id="SVGID_34_" gradientUnits="userSpaceOnUse" x1="306" x2="306" xlink:href="#lg4" y1="364.667" y2="411.505"/><linearGradient id="SVGID_35_" gradientUnits="userSpaceOnUse" x1="307.5" x2="307.5" xlink:href="#lg3" y1="391" y2="463.111"/><linearGradient id="SVGID_36_" gradientUnits="userSpaceOnUse" x1="307.5" x2="307.5" xlink:href="#lg3" y1="171" y2="238.007"/><linearGradient id="SVGID_37_" gradientUnits="userSpaceOnUse" x1="307.5" x2="307.5" xlink:href="#lg4" y1="209.5" y2="187"/><linearGradient id="SVGID_38_" gradientUnits="userSpaceOnUse" x1="255" x2="255" xlink:href="#lg3" y1="426" y2="509.006"/><linearGradient id="SVGID_39_" gradientUnits="userSpaceOnUse" x1="255" x2="255" xlink:href="#lg3" y1="446" y2="535.09"/><linearGradient id="SVGID_40_" gradientUnits="userSpaceOnUse" x1="155.935" x2="314.927" xlink:href="#lg3" y1="2.092" y2="278.078"/><linearGradient id="SVGID_41_" gradientUnits="userSpaceOnUse" x1="349.272" x2="161.272" xlink:href="#lg3" y1="380.031" y2="-60.97"/><linearGradient id="SVGID_42_" gradientUnits="userSpaceOnUse" x1="255" x2="255" xlink:href="#lg4" y1="139" y2="207.184"/><linearGradient id="SVGID_43_" gradientUnits="userSpaceOnUse" x1="326.691" x2="258.191" xlink:href="#lg4" y1="173.404" y2="73.404"/><linearGradient id="SVGID_44_" gradientUnits="userSpaceOnUse" x1="221.318" x2="299.079" xlink:href="#lg3" y1="65.409" y2="143.17"/><linearGradient id="SVGID_45_" gradientUnits="userSpaceOnUse" x1="226.484" x2="269.777" xlink:href="#lg1" y1="71.016" y2="114.309"/><g><path d="m95 174.163h320v263.333h-320z" fill="url(#SVGID_1_)"/><path d="m95 174.163h96.188v263.333h-96.188z" fill="url(#SVGID_2_)"/><path d="m206.906 174.163h96.188v263.333h-96.188z" fill="url(#SVGID_3_)"/><path d="m318.813 174.163h96.188v263.333h-96.188z" fill="url(#SVGID_4_)"/><path d="m95 174.163h320v91.408h-320z" fill="url(#SVGID_5_)"/><g><g><path d="m239.102 420h-76.204l12.602-227h51z" fill="url(#SVGID_6_)"/><path d="m194.167 193-12.602 227h57.537l-12.602-227z" fill="url(#SVGID_7_)"/><path d="m175.5 193-12.602 227h57.537l-12.602-227z" fill="url(#SVGID_8_)"/><path d="m230.761 269.761-4.261-76.761h-51l-1.131 20.369z" fill="url(#SVGID_9_)"/><path d="m162.898 420h76.204l-4.664-84h-66.876z" fill="url(#SVGID_10_)"/><path d="m236.594 404h-68.188c-10.165 0-18.406 8.241-18.406 18.406l-2 28.594h112l-5-28.594c0-10.165-8.241-18.406-18.406-18.406z" fill="url(#SVGID_11_)"/><path d="m227.487 213.723h-49.974c-7.45 0-13.49-6.04-13.49-13.49v-20.956h76.953v20.956c.001 7.45-6.039 13.49-13.489 13.49z" fill="url(#SVGID_12_)"/><path d="m227.487 213.723h-49.974c-7.45 0-13.49-6.04-13.49-13.49v-20.956h76.953v20.956c.001 7.45-6.039 13.49-13.489 13.49z" fill="url(#SVGID_13_)"/></g><g><path d="m134.102 420h-76.204l12.602-227h51z" fill="url(#SVGID_14_)"/><path d="m89.167 193-12.602 227h57.537l-12.602-227z" fill="url(#SVGID_15_)"/><path d="m70.5 193-12.602 227h57.537l-12.602-227z" fill="url(#SVGID_16_)"/><path d="m125.761 269.761-4.261-76.761h-51l-1.131 20.369z" fill="url(#SVGID_17_)"/><path d="m57.898 420h76.204l-4.664-84h-66.876z" fill="url(#SVGID_18_)"/><path d="m150 422.406v28.594h-105v-28.594c0-10.165 8.241-18.406 18.406-18.406h68.188c10.165 0 18.406 8.241 18.406 18.406z" fill="url(#SVGID_19_)"/><path d="m122.487 213.723h-49.974c-7.45 0-13.49-6.04-13.49-13.49v-20.956h76.953v20.956c.001 7.45-6.039 13.49-13.489 13.49z" fill="url(#SVGID_20_)"/><path d="m122.487 213.723h-49.974c-7.45 0-13.49-6.04-13.49-13.49v-20.956h76.953v20.956c.001 7.45-6.039 13.49-13.489 13.49z" fill="url(#SVGID_21_)"/></g><g><path d="m449.102 420h-76.204l12.602-227h51z" fill="url(#SVGID_22_)"/><path d="m404.167 193-12.602 227h57.537l-12.602-227z" fill="url(#SVGID_23_)"/><path d="m385.5 193-12.602 227h57.537l-12.602-227z" fill="url(#SVGID_24_)"/><path d="m440.761 269.761-4.261-76.761h-51l-1.131 20.369z" fill="url(#SVGID_25_)"/><path d="m372.898 420h76.204l-4.664-84h-66.876z" fill="url(#SVGID_26_)"/><path d="m446.594 404h-68.188c-10.165 0-18.406 8.241-18.406 18.406l-5 28.594h110v-28.594c0-10.165-8.241-18.406-18.406-18.406z" fill="url(#SVGID_27_)"/><path d="m437.487 213.723h-49.974c-7.45 0-13.49-6.04-13.49-13.49v-20.956h76.953v20.956c.001 7.45-6.039 13.49-13.489 13.49z" fill="url(#SVGID_28_)"/><path d="m437.487 213.723h-49.974c-7.45 0-13.49-6.04-13.49-13.49v-20.956h76.953v20.956c.001 7.45-6.039 13.49-13.489 13.49z" fill="url(#SVGID_29_)"/></g><g><path d="m344.102 420h-76.204l12.602-227h51z" fill="url(#SVGID_30_)"/><path d="m299.167 193-12.602 227h57.537l-12.602-227z" fill="url(#SVGID_31_)"/><path d="m280.5 193-12.602 227h57.537l-12.602-227z" fill="url(#SVGID_32_)"/><path d="m335.761 269.761-4.261-76.761h-51l-1.131 20.369z" fill="url(#SVGID_33_)"/><path d="m267.898 420h76.204l-4.664-84h-66.876z" fill="url(#SVGID_34_)"/><path d="m341.594 404h-68.188c-10.165 0-18.406 8.241-18.406 18.406v28.594h105v-28.594c0-10.165-8.241-18.406-18.406-18.406z" fill="url(#SVGID_35_)"/><path d="m332.487 213.723h-49.974c-7.45 0-13.49-6.04-13.49-13.49v-20.956h76.953v20.956c.001 7.45-6.039 13.49-13.489 13.49z" fill="url(#SVGID_36_)"/><path d="m332.487 213.723h-49.974c-7.45 0-13.49-6.04-13.49-13.49v-20.956h76.953v20.956c.001 7.45-6.039 13.49-13.489 13.49z" fill="url(#SVGID_37_)"/></g></g><g><path d="m481.518 472.164h-453.036c-3 0-5.432-2.432-5.432-5.432v-12.401c0-9.298 7.538-16.836 16.835-16.836h430.229c9.298 0 16.835 7.538 16.835 16.836v12.401c.001 3-2.431 5.432-5.431 5.432z" fill="url(#SVGID_38_)"/><path d="m502.456 510h-494.912c-4.167 0-7.544-3.378-7.544-7.544v-17.222c0-12.913 10.468-23.381 23.381-23.381h463.238c12.913 0 23.381 10.468 23.381 23.381v17.222c0 4.166-3.377 7.544-7.544 7.544z" fill="url(#SVGID_39_)"/></g><g><path d="m213.353 13.09-206.608 148.542c-13.26 9.534-5.657 28.55 11.415 28.55h473.68c17.072 0 24.676-19.017 11.415-28.55l-206.608-148.542c-24.276-17.453-59.018-17.453-83.294 0z" fill="url(#SVGID_40_)"/><path d="m64.047 165.182c-6.075 0-8.583-7.787-3.651-11.333l167.551-120.461c7.523-5.409 17.131-8.388 27.053-8.388s19.529 2.979 27.053 8.388l167.551 120.461c4.932 3.546 2.424 11.333-3.651 11.333z" fill="url(#SVGID_41_)"/><path d="m6.745 161.632c-13.26 9.534-5.657 28.55 11.415 28.55h473.68c17.072 0 24.676-19.017 11.415-28.55l-86.812-62.414h-322.886z" fill="url(#SVGID_42_)"/></g><path d="m295.885 58.206-81.771 81.771 50.206 50.205h163.542z" fill="url(#SVGID_43_)"/><circle cx="255" cy="99.091" fill="url(#SVGID_44_)" r="57.821"/><path d="m278.345 61c-5.836 0-8.337.625-12.611 8.129l-10.734 18.759-10.734-18.759c-4.273-7.504-6.774-8.129-12.61-8.129-4.064 0-8.129 2.189-8.129 8.129v63.051c0 3.335 4.064 5.002 8.129 5.002 4.064 0 8.129-1.668 8.129-5.002v-40.123l9.9 18.134c1.251 2.397 3.231 3.022 5.107 3.022 1.98 0 4.065-.729 5.419-3.022l10.005-17.092v39.081c0 3.335 4.064 5.002 8.129 5.002 4.064 0 8.129-1.668 8.129-5.002v-63.051c-.001-5.94-3.961-8.129-8.129-8.129z" fill="url(#SVGID_45_)"/></g></svg>