<?xml version="1.0" encoding="utf-8"?>
<!-- Generator: Adobe Illustrator 25.1.0, SVG Export Plug-In . SVG Version: 6.00 Build 0)  -->
<svg version="1.1" id="Layer_1" xmlns="http://www.w3.org/2000/svg" xmlns:xlink="http://www.w3.org/1999/xlink" x="0px" y="0px"
	 viewBox="0 0 511 511" style="enable-background:new 0 0 511 511;" xml:space="preserve">
<style type="text/css">
	.st0{fill:url(#SVGID_1_);}
	.st1{fill:url(#SVGID_2_);}
	.st2{fill:url(#SVGID_3_);}
	.st3{fill:url(#SVGID_4_);}
	.st4{fill:url(#SVGID_5_);}
	.st5{fill:url(#SVGID_6_);}
	.st6{fill:url(#SVGID_7_);}
	.st7{fill:url(#SVGID_8_);}
	.st8{fill:url(#SVGID_9_);}
	.st9{fill:url(#SVGID_10_);}
	.st10{fill:url(#SVGID_11_);}
	.st11{fill:url(#SVGID_12_);}
	.st12{fill:url(#SVGID_13_);}
	.st13{opacity:0.39;fill:url(#SVGID_14_);}
	.st14{fill:url(#SVGID_15_);}
	.st15{fill:url(#SVGID_16_);}
	.st16{fill:url(#SVGID_17_);}
	.st17{fill:url(#SVGID_18_);}
	.st18{fill:url(#SVGID_19_);}
	.st19{opacity:0.39;fill:url(#SVGID_20_);}
	.st20{fill:url(#SVGID_21_);}
</style>
<linearGradient id="SVGID_1_" gradientUnits="userSpaceOnUse" x1="261.4987" y1="421.0143" x2="261.4987" y2="327.7821" gradientTransform="matrix(0.998 0 0 -0.998 -1.4529 510.0442)">
	<stop  offset="0" style="stop-color:#4F4A72"/>
	<stop  offset="1" style="stop-color:#3B395F"/>
</linearGradient>
<path class="st0" d="M69.4,163.9c-5.4,1.5-10.3,4.1-14.4,7.6h409.1V97.3c0-21.1-20.1-36.4-40.4-30.8L69.4,163.9z"/>
<linearGradient id="SVGID_2_" gradientUnits="userSpaceOnUse" x1="446.3901" y1="14.2317" x2="301.0877" y2="138.1113">
	<stop  offset="0" style="stop-color:#00E7B2"/>
	<stop  offset="0.4139" style="stop-color:#1FA999"/>
	<stop  offset="1" style="stop-color:#4F4A72"/>
</linearGradient>
<path class="st1" d="M70.3,171.5h393.7V97.3c0-21.1-20.1-36.4-40.4-30.8L69.4,163.9c-0.1,0-0.1,0-0.2,0
	C64.9,165.1,65.9,171.5,70.3,171.5z"/>
<linearGradient id="SVGID_3_" gradientUnits="userSpaceOnUse" x1="132.6472" y1="363.3157" x2="424.0495" y2="363.3157" gradientTransform="matrix(0.998 0 0 -0.998 -1.4529 510.0442)">
	<stop  offset="0" style="stop-color:#FFC738"/>
	<stop  offset="0.2344" style="stop-color:#FEC33A"/>
	<stop  offset="0.4454" style="stop-color:#FBB840"/>
	<stop  offset="0.6474" style="stop-color:#F6A649"/>
	<stop  offset="0.8426" style="stop-color:#F08D56"/>
	<stop  offset="1" style="stop-color:#E97264"/>
</linearGradient>
<path class="st2" d="M421.8,132.1c0-71.8-65.1-130-145.4-130s-145.4,58.2-145.4,130v30.7c0,71.8,65.1,130,145.4,130
	s145.4-58.2,145.4-130C421.8,162.7,421.8,132.2,421.8,132.1z"/>
<linearGradient id="SVGID_4_" gradientUnits="userSpaceOnUse" x1="264.4763" y1="389.987" x2="384.2341" y2="159.6834" gradientTransform="matrix(0.998 0 0 -0.998 -1.4529 510.0442)">
	<stop  offset="0" style="stop-color:#FCA17A;stop-opacity:0"/>
	<stop  offset="0.152" style="stop-color:#F69373;stop-opacity:0.1529"/>
	<stop  offset="0.416" style="stop-color:#EF816B;stop-opacity:0.4157"/>
	<stop  offset="0.6926" style="stop-color:#EA7666;stop-opacity:0.6941"/>
	<stop  offset="1" style="stop-color:#E97264"/>
</linearGradient>
<path class="st3" d="M396.1,58.3C369.9,24.3,326,2,276.3,2s-93.5,22.3-119.8,56.3v178.3c26.2,34,70.1,56.3,119.8,56.3
	s93.5-22.3,119.8-56.3V58.3z"/>
<linearGradient id="SVGID_5_" gradientUnits="userSpaceOnUse" x1="273.8636" y1="317.8473" x2="259.7188" y2="174.3783" gradientTransform="matrix(0.998 0 0 -0.998 -1.4529 510.0442)">
	<stop  offset="0" style="stop-color:#E97264;stop-opacity:0"/>
	<stop  offset="1" style="stop-color:#B53759"/>
</linearGradient>
<path class="st4" d="M191.1,268.1c24,15.5,53.4,24.7,85.3,24.7c31.9,0,61.3-9.2,85.3-24.7V26.7C337.7,11.2,308.2,2,276.3,2
	c-31.9,0-61.3,9.2-85.3,24.7V268.1z"/>
<linearGradient id="SVGID_6_" gradientUnits="userSpaceOnUse" x1="249.4882" y1="310.5355" x2="205.7625" y2="230.5637" gradientTransform="matrix(0.998 0 0 -0.998 -1.4529 510.0442)">
	<stop  offset="0" style="stop-color:#E97264;stop-opacity:0"/>
	<stop  offset="1" style="stop-color:#B53759"/>
</linearGradient>
<path class="st5" d="M243.3,289.5c10.6,2.2,21.7,3.4,33,3.4c11.4,0,22.4-1.2,33-3.4V5.4c-10.6-2.2-21.7-3.4-33-3.4
	c-11.4,0-22.4,1.2-33,3.4V289.5z"/>
<radialGradient id="SVGID_7_" cx="233.8298" cy="194.3731" r="273.6388" gradientTransform="matrix(1.002 0 0 -0.8961 1.4592 212.0974)" gradientUnits="userSpaceOnUse">
	<stop  offset="0" style="stop-color:#FFC738"/>
	<stop  offset="0.2344" style="stop-color:#FEC33A"/>
	<stop  offset="0.4454" style="stop-color:#FBB840"/>
	<stop  offset="0.6474" style="stop-color:#F6A649"/>
	<stop  offset="0.8426" style="stop-color:#F08D56"/>
	<stop  offset="1" style="stop-color:#E97264"/>
</radialGradient>
<path class="st6" d="M421.8,132.1c0-71.8-65.1-130-145.4-130s-145.4,58.2-145.4,130c0,71.8,65.1,130,145.4,130
	S421.8,203.9,421.8,132.1z"/>
<radialGradient id="SVGID_8_" cx="-5518.3389" cy="5141.6812" r="201.8128" gradientTransform="matrix(-1.002 0 0 0.8961 -5242.8052 -4442.105)" gradientUnits="userSpaceOnUse">
	<stop  offset="0" style="stop-color:#FFC738"/>
	<stop  offset="0.2344" style="stop-color:#FEC33A"/>
	<stop  offset="0.4454" style="stop-color:#FBB840"/>
	<stop  offset="0.6474" style="stop-color:#F6A649"/>
	<stop  offset="0.8426" style="stop-color:#F08D56"/>
	<stop  offset="1" style="stop-color:#E97264"/>
</radialGradient>
<path class="st7" d="M405.6,132.1c0-63.8-57.8-115.5-129.2-115.5c-71.4,0-129.2,51.7-129.2,115.5c0,63.8,57.8,115.5,129.2,115.5
	C347.7,247.6,405.6,195.9,405.6,132.1z"/>
<radialGradient id="SVGID_9_" cx="254.4955" cy="160.7483" r="227.2047" gradientTransform="matrix(1.002 0 0 -0.8961 1.4592 212.0974)" gradientUnits="userSpaceOnUse">
	<stop  offset="0" style="stop-color:#FFC738"/>
	<stop  offset="0.2344" style="stop-color:#FEC33A"/>
	<stop  offset="0.4454" style="stop-color:#FBB840"/>
	<stop  offset="0.6474" style="stop-color:#F6A649"/>
	<stop  offset="0.8426" style="stop-color:#F08D56"/>
	<stop  offset="1" style="stop-color:#E97264"/>
</radialGradient>
<path class="st8" d="M393.3,132.1c0-57.8-52.4-104.6-117-104.6s-117,46.8-117,104.6c0,57.8,52.4,104.6,117,104.6
	S393.3,189.8,393.3,132.1z"/>
<linearGradient id="SVGID_10_" gradientUnits="userSpaceOnUse" x1="359.9791" y1="318.0908" x2="208.2666" y2="406.914" gradientTransform="matrix(0.998 0 0 -0.998 -1.4529 510.0442)">
	<stop  offset="0" style="stop-color:#E97264;stop-opacity:0"/>
	<stop  offset="1" style="stop-color:#B53759"/>
</linearGradient>
<path class="st9" d="M413.2,176.2l-122-120.8c-0.2-1.6-1.5-2.8-3.1-2.8h-11.3c-1.7,0-3.1,1.4-3.1,3.1v9.8l-11.9-10.1
	c-0.2-1.6-1.5-2.8-3.1-2.8h-11.3c-1.7,0-3.1,1.4-3.1,3.1v9.8h-9.8c-1.7,0-3.1,1.4-3.1,3.1v10c0,1.6,1.2,2.9,2.8,3.1l10.1,10.8v82.3
	h-9.8c-1.7,0-3.1,1.4-3.1,3.1v10c0,1.6,1.2,2.9,2.8,3.1l68.6,69C354,251.6,395.8,219.1,413.2,176.2z"/>
<linearGradient id="SVGID_11_" gradientUnits="userSpaceOnUse" x1="292.6085" y1="394.8766" x2="172.4342" y2="330.3257" gradientTransform="matrix(0.998 0 0 -0.998 -1.4529 510.0442)">
	<stop  offset="0" style="stop-color:#FFC738"/>
	<stop  offset="1" style="stop-color:#E97264"/>
</linearGradient>
<path class="st10" d="M316.9,132.9c-3-4.3-7.4-7.6-13.2-9.9c9.7-4.4,14.6-13.6,14.6-27.8c0-11.1-3.2-18.8-9.4-23.2
	c-4.7-3.2-10.6-5.3-17.6-6.1V55.7c0-1.7-1.4-3.1-3.1-3.1h-11.3c-1.7,0-3.1,1.4-3.1,3.1v9.8h-11.9v-9.8c0-1.7-1.4-3.1-3.1-3.1h-11.3
	c-1.7,0-3.1,1.4-3.1,3.1v9.8h-9.8c-1.7,0-3.1,1.4-3.1,3.1v10c0,1.7,1.4,3.1,3.1,3.1h9.8v93.1h-9.8c-1.7,0-3.1,1.4-3.1,3.1v10
	c0,1.7,1.4,3.1,3.1,3.1h9.8v9.8c0,1.7,1.4,3.1,3.1,3.1h11.3c1.7,0,3.1-1.4,3.1-3.1V191h11.9v9.8c0,1.7,1.4,3.1,3.1,3.1h11.3
	c1.7,0,3.1-1.4,3.1-3.1v-9.9c8.6-0.7,15.5-3.5,20.9-8.4c6.2-5.7,9.3-14.9,9.3-27.5v-3.3C321.4,143.4,319.9,137.2,316.9,132.9z
	 M262.3,81.6h20.1c11.8,0,17.7,5.5,17.7,16.5c0,11.8-5.8,17.7-17.3,17.7h-20.4V81.6z M303.2,153.6c0,14.2-6.5,21.3-19.4,21.3h-21.5
	v-44.7h21.5c6.4,0,11.3,1.6,14.5,4.8c3.3,3.2,4.9,8.5,4.9,15.8V153.6z"/>
<linearGradient id="SVGID_12_" gradientUnits="userSpaceOnUse" x1="286.5583" y1="234.3249" x2="80.3075" y2="440.5757" gradientTransform="matrix(0.998 0 0 -0.998 -1.4529 510.0442)">
	<stop  offset="0" style="stop-color:#E97264;stop-opacity:0"/>
	<stop  offset="1" style="stop-color:#B53759"/>
</linearGradient>
<path class="st11" d="M276.3,292.9c33.1,0,63.7-9.9,88.2-26.6L156.6,58.3c-16.2,21-25.7,46.4-25.7,73.8v30.7
	C130.9,234.6,196,292.9,276.3,292.9z"/>
<linearGradient id="SVGID_13_" gradientUnits="userSpaceOnUse" x1="273.7214" y1="260.7955" x2="273.7214" y2="-36.6715" gradientTransform="matrix(0.998 0 0 -0.998 -1.4529 510.0442)">
	<stop  offset="0" style="stop-color:#00E7B2"/>
	<stop  offset="0.4139" style="stop-color:#1FA999"/>
	<stop  offset="1" style="stop-color:#4F4A72"/>
</linearGradient>
<path class="st12" d="M501.8,209.2v263.4c0,20.8-16.9,37.7-37.7,37.7H79.4c-20.8,0-37.7-16.9-37.7-37.7V200.2
	c0-11.3,5.1-21.7,13.3-28.7h409.1C484.9,171.5,501.8,188.4,501.8,209.2z"/>
<linearGradient id="SVGID_14_" gradientUnits="userSpaceOnUse" x1="225.6345" y1="303.1489" x2="334.573" y2="-210.6103" gradientTransform="matrix(0.998 0 0 -0.998 -1.4529 510.0442)">
	<stop  offset="0" style="stop-color:#4F4A72;stop-opacity:0"/>
	<stop  offset="1" style="stop-color:#3B395F"/>
</linearGradient>
<path class="st13" d="M41.7,207.9h394.7c16.7,0,30.2,12.5,30.2,27.8v205.5c0,15.4-13.5,27.8-30.2,27.8H41.7V207.9z"/>
<linearGradient id="SVGID_15_" gradientUnits="userSpaceOnUse" x1="445.3302" y1="179.9307" x2="561.749" y2="63.5118" gradientTransform="matrix(0.998 0 0 -0.998 -1.4529 510.0442)">
	<stop  offset="0" style="stop-color:#B53759;stop-opacity:0"/>
	<stop  offset="1" style="stop-color:#5DAD7E"/>
</linearGradient>
<path class="st14" d="M501.8,472.6v-199c-1.5-0.6-3.2-0.9-4.9-0.9H370.4c-7.8,0-14.1,6.3-14.1,14.1v66.6c0,4.7,2.3,8.8,5.8,11.4
	l131.4,131.4C498.6,489.8,501.8,481.5,501.8,472.6z"/>
<linearGradient id="SVGID_16_" gradientUnits="userSpaceOnUse" x1="432.3053" y1="217.5566" x2="450.5664" y2="79.8949" gradientTransform="matrix(0.998 0 0 -0.998 -1.4529 510.0442)">
	<stop  offset="0" style="stop-color:#00E7B2"/>
	<stop  offset="0.4139" style="stop-color:#1FA999"/>
	<stop  offset="1" style="stop-color:#4F4A72"/>
</linearGradient>
<path class="st15" d="M496.9,367.6H370.4c-7.8,0-14.1-6.3-14.1-14.1v-66.6c0-7.8,6.3-14.1,14.1-14.1h126.5c7.8,0,14.1,6.3,14.1,14.1
	v66.6C511,361.3,504.7,367.6,496.9,367.6z"/>
<linearGradient id="SVGID_17_" gradientUnits="userSpaceOnUse" x1="273.7214" y1="74.554" x2="273.7214" y2="-13.5889" gradientTransform="matrix(0.998 0 0 -0.998 -1.4529 510.0442)">
	<stop  offset="0" style="stop-color:#719275;stop-opacity:0"/>
	<stop  offset="0.9989" style="stop-color:#5DAD7E"/>
</linearGradient>
<path class="st16" d="M41.7,388v84.6c0,20.8,16.9,37.7,37.7,37.7h384.7c20.8,0,37.7-16.9,37.7-37.7V388H41.7z"/>
<linearGradient id="SVGID_18_" gradientUnits="userSpaceOnUse" x1="452.3776" y1="145.5211" x2="375.8996" y2="221.9992" gradientTransform="matrix(0.998 0 0 -0.998 -1.4529 510.0442)">
	<stop  offset="0" style="stop-color:#3B395F;stop-opacity:0"/>
	<stop  offset="1" style="stop-color:#3B395F"/>
</linearGradient>
<path class="st17" d="M427.3,300.3c-5.4-6-13.2-9.7-21.9-9.7c-16.3,0-29.6,13.3-29.6,29.6c0,8.7,3.8,16.5,9.7,21.9l25.5,25.5h83.6
	L427.3,300.3z"/>
<radialGradient id="SVGID_19_" cx="399.0441" cy="199.3927" r="37.2029" gradientTransform="matrix(0.998 0 0 -0.998 -1.4529 510.0442)" gradientUnits="userSpaceOnUse">
	<stop  offset="0" style="stop-color:#FFC738"/>
	<stop  offset="0.2344" style="stop-color:#FEC33A"/>
	<stop  offset="0.4454" style="stop-color:#FBB840"/>
	<stop  offset="0.6474" style="stop-color:#F6A649"/>
	<stop  offset="0.8426" style="stop-color:#F08D56"/>
	<stop  offset="1" style="stop-color:#E97264"/>
</radialGradient>
<path class="st18" d="M435,320.2c0,16.4-13.3,29.6-29.6,29.6c-16.3,0-29.6-13.3-29.6-29.6c0-16.3,13.3-29.6,29.6-29.6
	C421.8,290.6,435,303.8,435,320.2z"/>
<linearGradient id="SVGID_20_" gradientUnits="userSpaceOnUse" x1="319.4744" y1="86.8518" x2="122.6683" y2="283.6578" gradientTransform="matrix(0.998 0 0 -0.998 -1.4529 510.0442)">
	<stop  offset="0" style="stop-color:#4F4A72;stop-opacity:0"/>
	<stop  offset="1" style="stop-color:#3B395F"/>
</linearGradient>
<path class="st19" d="M171.2,184.9c-6.8,0-12.4-5.5-12.4-12.4v-1l0,0H55c-8.2,7-13.3,17.4-13.3,28.7v52.2l257.8,257.8h164.5
	c12.3,0,23.2-5.9,30.1-15L192.5,193.7C186.9,188.1,179.2,184.9,171.2,184.9z"/>
<linearGradient id="SVGID_21_" gradientUnits="userSpaceOnUse" x1="93.2521" y1="389.1416" x2="268.2329" y2="224.2172" gradientTransform="matrix(0.998 0 0 -0.998 -1.4529 510.0442)">
	<stop  offset="0" style="stop-color:#FFB5B0"/>
	<stop  offset="1" style="stop-color:#FF70AC"/>
</linearGradient>
<path class="st20" d="M158.6,168.6V8.1c0-6.9-5.6-6.1-12.5-6.1H47c-6.9,0-12.5-0.8-12.5,6.1v160.4c0,9.5-7.7,17.2-17.2,17.2
	c-15.4,0-23.1,18.6-12.2,29.4l79.3,79.3c6.7,6.7,17.7,6.7,24.4,0l79.3-79.3c10.9-10.9,3.2-29.4-12.2-29.4
	C166.3,185.8,158.6,178.1,158.6,168.6z"/>
</svg>
