<svg id="Layer_1" enable-background="new 0 0 510 510" height="512" viewBox="0 0 510 510" width="512" xmlns="http://www.w3.org/2000/svg" xmlns:xlink="http://www.w3.org/1999/xlink"><linearGradient id="lg1"><stop offset="0" stop-color="#e4f2ff"/><stop offset="1" stop-color="#b2cbff"/></linearGradient><linearGradient id="SVGID_1_" gradientUnits="userSpaceOnUse" x1="321.72" x2="354.758" xlink:href="#lg1" y1="170.392" y2="216.646"/><linearGradient id="lg2"><stop offset="0" stop-color="#fff" stop-opacity="0"/><stop offset="1" stop-color="#fff"/></linearGradient><linearGradient id="SVGID_2_" gradientUnits="userSpaceOnUse" x1="335.634" x2="325.898" xlink:href="#lg2" y1="84.104" y2="1.058"/><linearGradient id="SVGID_3_" gradientUnits="userSpaceOnUse" x1="266.638" x2="518.824" xlink:href="#lg1" y1="162.004" y2="414.19"/><linearGradient id="SVGID_4_" gradientUnits="userSpaceOnUse" x1="353.563" x2="253.636" xlink:href="#lg1" y1="248.928" y2="149.001"/><linearGradient id="lg3"><stop offset="0" stop-color="#ff819c"/><stop offset=".2594" stop-color="#ff7e9a"/><stop offset=".4757" stop-color="#fe7396"/><stop offset=".6765" stop-color="#fc628e"/><stop offset=".8668" stop-color="#fa4a83"/><stop offset="1" stop-color="#f83479"/></linearGradient><linearGradient id="SVGID_5_" gradientUnits="userSpaceOnUse" x1="310.234" x2="362.445" xlink:href="#lg3" y1="205.599" y2="257.811"/><linearGradient id="SVGID_6_" gradientUnits="userSpaceOnUse" x1="321.5" x2="131.595" xlink:href="#lg2" y1="216.865" y2="26.96"/><linearGradient id="SVGID_7_" gradientUnits="userSpaceOnUse" x1="396.253" x2="214.691" y1="269.444" y2="250.878"><stop offset="0" stop-color="#3f3ced" stop-opacity="0"/><stop offset=".2796" stop-color="#3c3de4" stop-opacity=".28"/><stop offset=".7305" stop-color="#3541cc" stop-opacity=".731"/><stop offset="1" stop-color="#2f43bb"/></linearGradient><linearGradient id="SVGID_8_" gradientUnits="userSpaceOnUse" x1="136.885" x2="169.924" xlink:href="#lg1" y1="267.656" y2="313.909"/><linearGradient id="SVGID_9_" gradientUnits="userSpaceOnUse" x1="150.799" x2="141.063" xlink:href="#lg2" y1="181.368" y2="98.322"/><linearGradient id="SVGID_10_" gradientUnits="userSpaceOnUse" x1="81.804" x2="333.99" xlink:href="#lg1" y1="259.267" y2="511.453"/><linearGradient id="SVGID_11_" gradientUnits="userSpaceOnUse" x1="87.426" x2="-12.501" xlink:href="#lg1" y1="427.494" y2="327.566"/><linearGradient id="SVGID_12_" gradientUnits="userSpaceOnUse" x1="44.097" x2="96.309" xlink:href="#lg3" y1="384.165" y2="436.376"/><linearGradient id="SVGID_13_" gradientUnits="userSpaceOnUse" x1="168.729" x2="68.801" xlink:href="#lg1" y1="346.192" y2="246.264"/><linearGradient id="SVGID_14_" gradientUnits="userSpaceOnUse" x1="125.399" x2="177.611" xlink:href="#lg3" y1="302.863" y2="355.074"/><linearGradient id="SVGID_15_" gradientUnits="userSpaceOnUse" x1="250.031" x2="150.103" xlink:href="#lg1" y1="264.89" y2="164.962"/><linearGradient id="SVGID_16_" gradientUnits="userSpaceOnUse" x1="206.701" x2="258.913" xlink:href="#lg3" y1="221.561" y2="273.772"/><linearGradient id="SVGID_17_" gradientUnits="userSpaceOnUse" x1="136.665" x2="-53.24" xlink:href="#lg2" y1="314.128" y2="124.223"/><path d="m193.557 88.208c-5.375 5.189-8.723 12.463-8.723 20.524v231.687c0 15.758 12.774 28.532 28.532 28.532h231.687c8.06 0 15.334-3.348 20.523-8.722l35.701-35.701c5.374-5.189 8.722-12.463 8.722-20.524v-231.687c0-15.758-12.774-28.532-28.532-28.532h-231.686c-8.061 0-15.335 3.348-20.524 8.722z" fill="url(#SVGID_1_)"/><path d="m487.313 50.12h-231.687c-8.061 0-15.335 3.348-20.524 8.722l-35.7 35.7c-5.375 5.189-8.723 12.463-8.723 20.524v231.687c0 5.903 1.793 11.387 4.863 15.937 4.884 3.914 11.078 6.26 17.824 6.26h231.687c8.06 0 15.334-3.348 20.523-8.722l35.701-35.701c5.374-5.189 8.722-12.463 8.722-20.524v-231.686c0-5.903-1.793-11.386-4.863-15.937-4.883-3.913-11.077-6.26-17.823-6.26z" fill="url(#SVGID_2_)"/><path d="m445.054 368.951h-231.687c-15.758 0-28.532-12.774-28.532-28.532v-231.687c0-15.758 12.774-28.532 28.532-28.532h231.687c15.758 0 28.532 12.774 28.532 28.532v231.687c0 15.758-12.775 28.532-28.532 28.532z" fill="url(#SVGID_3_)"/><circle cx="329.21" cy="224.575" fill="url(#SVGID_4_)" r="43.278"/><circle cx="329.21" cy="224.575" fill="url(#SVGID_5_)" r="37.336"/><path d="m229.125 95.959c-15.758 0-28.532 12.774-28.532 28.532v231.687c0 3.783.743 7.39 2.08 10.694 3.303 1.337 6.911 2.08 10.694 2.08h231.687c15.758 0 28.532-12.774 28.532-28.532v-231.688c0-3.783-.743-7.39-2.08-10.694-3.303-1.337-6.911-2.079-10.694-2.079z" fill="url(#SVGID_6_)"/><path d="m213.367 368.951h231.687c8.06 0 15.334-3.348 20.523-8.721l30.927-30.927-177.79-177.79c-5.232-6.387-13.18-10.464-22.081-10.464h-111.798v199.37c0 15.758 12.774 28.532 28.532 28.532z" fill="url(#SVGID_7_)"/><path d="m8.723 185.471c-5.375 5.189-8.723 12.464-8.723 20.524v231.687c0 15.758 12.774 28.532 28.532 28.532h231.687c8.06 0 15.334-3.348 20.523-8.722l35.701-35.701c5.375-5.189 8.722-12.463 8.722-20.524v-231.686c0-15.758-12.774-28.532-28.532-28.532h-231.687c-8.061 0-15.335 3.348-20.524 8.722z" fill="url(#SVGID_8_)"/><path d="m302.478 147.384h-231.687c-8.061 0-15.335 3.348-20.524 8.722l-35.7 35.7c-5.375 5.189-8.723 12.463-8.723 20.524v231.687c0 5.903 1.793 11.387 4.863 15.937 4.884 3.914 11.078 6.26 17.824 6.26h231.687c8.06 0 15.334-3.348 20.523-8.722l35.701-35.701c5.375-5.189 8.722-12.463 8.722-20.524v-231.686c0-5.903-1.793-11.386-4.863-15.937-4.883-3.914-11.077-6.26-17.823-6.26z" fill="url(#SVGID_9_)"/><path d="m260.219 466.214h-231.687c-15.758 0-28.532-12.774-28.532-28.532v-231.687c0-15.758 12.774-28.532 28.532-28.532h231.687c15.758 0 28.532 12.774 28.532 28.532v231.687c0 15.758-12.774 28.532-28.532 28.532z" fill="url(#SVGID_10_)"/><circle cx="63.073" cy="403.141" fill="url(#SVGID_11_)" r="43.278"/><circle cx="63.073" cy="403.141" fill="url(#SVGID_12_)" r="37.336"/><circle cx="144.375" cy="321.839" fill="url(#SVGID_13_)" r="43.278"/><circle cx="144.375" cy="321.839" fill="url(#SVGID_14_)" r="37.336"/><circle cx="225.677" cy="240.537" fill="url(#SVGID_15_)" r="43.278"/><circle cx="225.677" cy="240.537" fill="url(#SVGID_16_)" r="37.336"/><path d="m44.291 193.222c-15.758 0-28.532 12.774-28.532 28.532v231.687c0 3.783.743 7.39 2.08 10.694 3.303 1.337 6.911 2.08 10.694 2.08h231.687c15.758 0 28.532-12.774 28.532-28.532v-231.688c0-3.783-.743-7.39-2.08-10.694-3.303-1.337-6.911-2.079-10.694-2.079z" fill="url(#SVGID_17_)"/></svg>