<svg height="512pt" viewBox="-2 0 512 512" width="512pt" xmlns="http://www.w3.org/2000/svg" xmlns:xlink="http://www.w3.org/1999/xlink"><radialGradient id="a" cx="184.113773841" cy="-68.1440167316" gradientUnits="userSpaceOnUse" r="542.4706581908"><stop offset="0" stop-color="#ffd459"/><stop offset=".2296" stop-color="#ffd355"/><stop offset=".4362" stop-color="#ffcf4a"/><stop offset=".634" stop-color="#ffc838"/><stop offset=".825" stop-color="#ffbf1f"/><stop offset="1" stop-color="#ffb400"/></radialGradient><linearGradient id="b"><stop offset="0" stop-color="#e58200" stop-opacity="0"/><stop offset=".0396" stop-color="#e27f04" stop-opacity=".039216"/><stop offset=".4671" stop-color="#c15d2f" stop-opacity=".466667"/><stop offset=".8016" stop-color="#ad4949" stop-opacity=".8"/><stop offset="1" stop-color="#a64153"/></linearGradient><linearGradient id="c" gradientUnits="userSpaceOnUse" x1="314.7248291786" x2="96.3736012382" xlink:href="#b" y1="246.1971128466" y2="119.4124058198"/><linearGradient id="d" gradientUnits="userSpaceOnUse" x1="271.7650993468" x2="70.5468042584" xlink:href="#b" y1="392.244372464" y2="179.6210214946"/><radialGradient id="e" cx="124.2071379038" cy="25.7554181256" gradientUnits="userSpaceOnUse" r="164.7774323714"><stop offset="0" stop-color="#ecf7ff"/><stop offset=".4075" stop-color="#e9f6ff"/><stop offset=".6495" stop-color="#e1f1ff"/><stop offset=".8477" stop-color="#d3e9ff"/><stop offset="1" stop-color="#c2e0ff"/></radialGradient><linearGradient id="f"><stop offset="0" stop-color="#ecf7ff"/><stop offset="1" stop-color="#c2e0ff"/></linearGradient><linearGradient id="g" gradientUnits="userSpaceOnUse" x1="135.7526424726" x2="183.4690551326" xlink:href="#f" y1="221.7961862834" y2="329.953522169"/><linearGradient id="h"><stop offset=".0029" stop-color="#c2e0ff" stop-opacity="0"/><stop offset=".0763" stop-color="#bfdcfd" stop-opacity=".07451"/><stop offset="1" stop-color="#9eb2e7"/></linearGradient><linearGradient id="i" gradientUnits="userSpaceOnUse" x1="250.8151546586" x2="173.673487002" xlink:href="#h" y1="320.495071046" y2="264.0305824702"/><linearGradient id="j"><stop offset="0" stop-color="#ff6e3a"/><stop offset=".1596" stop-color="#ff6440"/><stop offset=".4266" stop-color="#ff4b52"/><stop offset=".7662" stop-color="#ff216e"/><stop offset="1" stop-color="#ff0084"/></linearGradient><linearGradient id="k" gradientUnits="userSpaceOnUse" x1="149.0680615274" x2="190.007297942" xlink:href="#j" y1="285.3918340018" y2="285.3918340018"/><linearGradient id="l" gradientUnits="userSpaceOnUse" x1="193.2787785634" x2="157.7682503638" y1="258.0810395216" y2="222.570511322"><stop offset="0" stop-color="#ff0084" stop-opacity="0"/><stop offset=".0737" stop-color="#f4087e" stop-opacity=".07451"/><stop offset=".3347" stop-color="#d2216b" stop-opacity=".333333"/><stop offset=".583" stop-color="#ba335e" stop-opacity=".584314"/><stop offset=".8111" stop-color="#ab3d56" stop-opacity=".811765"/><stop offset="1" stop-color="#a64153"/></linearGradient><linearGradient id="m" gradientUnits="userSpaceOnUse" x1="145.9387362612" x2="193.1307000684" xlink:href="#j" y1="220.2448256168" y2="220.2448256168"/><linearGradient id="n" gradientUnits="userSpaceOnUse" x1="273.2172725198" x2="407.482905114" xlink:href="#f" y1="257.7397060416" y2="392.0053386358"/><linearGradient id="o" gradientUnits="userSpaceOnUse" x1="487.3498194318" x2="284.5971299586" xlink:href="#h" y1="350.5899420166" y2="350.5899420166"/><linearGradient id="p" gradientUnits="userSpaceOnUse" x1="285.1818141314" x2="455.7638231146" y1="272.869513327" y2="443.4515223102"><stop offset="0" stop-color="#00c6f6"/><stop offset=".8567" stop-color="#0b9cfd"/><stop offset="1" stop-color="#0d94fe"/></linearGradient><linearGradient id="q"><stop offset="0" stop-color="#0d94fe" stop-opacity="0"/><stop offset=".5142" stop-color="#0681cd" stop-opacity=".513725"/><stop offset="1" stop-color="#0070a2"/></linearGradient><linearGradient id="r" gradientUnits="userSpaceOnUse" x1="411.6944582962" x2="363.4902399364" xlink:href="#q" y1="401.666180434" y2="353.461861682"/><linearGradient id="s" gradientUnits="userSpaceOnUse" x1="336.2859615804" x2="380.8275713076" y1="326.257583326" y2="370.7992934454"><stop offset="0" stop-color="#f9f9f9"/><stop offset="1" stop-color="#e6e6e6"/></linearGradient><linearGradient id="t" gradientUnits="userSpaceOnUse" x1="416.5134846806" x2="221.5072581438" xlink:href="#q" y1="369.3622794946" y2="305.3304276672"/><path d="m384.445312 442.671875h-352.949218c-17.394532 0-31.496094-14.101563-31.496094-31.496094v-379.679687c0-17.394532 14.101562-31.496094 31.496094-31.496094h352.949218c17.394532 0 31.496094 14.101562 31.496094 31.496094v379.679687c.003906 17.394531-14.101562 31.496094-31.496094 31.496094zm0 0" fill="url(#a)"/><path d="m415.945312 411.175781v-179.992187l-183.492187-183.492188c-15.632813-16.960937-38.035156-27.601562-62.914063-27.601562-47.222656 0-85.507812 38.285156-85.507812 85.507812 0 24.878906 10.640625 47.285156 27.601562 62.914063l38.285157 38.285156 235.808593 235.8125c16.796876-.679687 30.21875-14.472656 30.21875-31.433594zm0 0" fill="url(#c)"/><path d="m256.375 241.214844c-22.21875-22.21875-52.917969-35.976563-86.835938-35.976563-6.671874 0-13.21875.539063-19.621093 1.558594-49.714844 7.980469-89.457031 45.789063-100.265625 94.507813l141.484375 141.367187h193.308593c17.394532 0 31.5-14.101563 31.5-31.496094v-10.34375zm0 0" fill="url(#d)"/><path d="m255.046875 105.597656c0 47.226563-38.285156 85.511719-85.507813 85.511719-47.226562 0-85.511718-38.285156-85.511718-85.511719 0-47.222656 38.285156-85.507812 85.511718-85.507812 47.222657 0 85.507813 38.285156 85.507813 85.507812zm0 0" fill="url(#e)"/><path d="m289.421875 301.304688c-30.53125 30.945312-72.972656 50.109374-119.882813 50.109374-46.910156 0-89.351562-19.164062-119.886718-50.109374 12.203125-54.976563 61.230468-96.066407 119.886718-96.066407 33.917969 0 64.617188 13.757813 86.835938 35.976563 16.210938 16.191406 27.914062 36.914062 33.046875 60.089844zm0 0" fill="url(#g)"/><path d="m289.421875 301.304688c-.476563.5-.976563.976562-1.476563 1.453124-28.867187 28.578126-68.046874 46.746094-111.445312 48.492188l-21.679688-21.722656-.332031-.269532c-3.824219-3.15625-5.820312-8-5.363281-12.945312l7.546875-78.441406c.144531-1.371094.726563-2.597656 1.601563-3.574219-.085938-.105469-.148438-.210937-.230469-.332031-1.226563-.792969-2.265625-1.914063-2.886719-3.308594l-8.6875-19.246094c-.605469-1.308594-.667969-2.699218-.3125-3.949218 1.101562-.207032 2.203125-.414063 3.324219-.582032.789062-.144531 1.601562-.269531 2.390625-.375.625-.101562 1.269531-.183594 1.914062-.269531.726563-.082031 1.453125-.183594 2.203125-.246094.890625-.105469 1.785157-.1875 2.679688-.273437.875-.082032 1.769531-.144532 2.660156-.207032.914063-.0625 1.832031-.101562 2.746094-.144531 1.808593-.082031 3.636719-.125 5.464843-.125 3.347657 0 6.671876.125 9.957032.394531.871094.082032 1.746094.144532 2.597656.25 1.765625.167969 3.53125.394532 5.277344.644532.855468.125 1.726562.269531 2.578125.414062 1 .148438 1.996093.332032 2.972656.542969 24.546875 4.714844 46.472656 16.75 63.453125 33.730469 16.210938 16.191406 27.914062 36.914062 33.046875 60.089844zm0 0" fill="url(#i)"/><path d="m184.585938 329.269531-8.550782 7.070313c-3.769531 3.121094-9.226562 3.121094-12.996094 0l-8.550781-7.070313c-3.820312-3.164062-5.828125-8.015625-5.351562-12.953125l7.542969-78.441406c.316406-3.273438 3.066406-5.769531 6.355468-5.769531h13.007813c3.289062 0 6.039062 2.496093 6.351562 5.769531l7.542969 78.441406c.476562 4.9375-1.53125 9.789063-5.351562 12.953125zm0 0" fill="url(#k)"/><path d="m182.394531 237.875c-.316406-3.273438-3.066406-5.769531-6.355469-5.769531h-13.007812c-1.9375 0-3.671875.878906-4.847656 2.265625l26.414062 26.414062zm0 0" fill="url(#l)"/><path d="m192.609375 211.410156-8.6875 19.246094c-1.269531 2.808594-4.054687 4.59375-7.152344 4.59375h-14.464843c-3.097657 0-5.882813-1.785156-7.148438-4.59375l-8.6875-19.246094c-.605469-1.308594-.667969-2.699218-.3125-3.949218 7.5625-1.453126 15.378906-2.222657 23.382812-2.222657 8 0 15.816407.769531 23.378907 2.246094.355469 1.246094.273437 2.617187-.308594 3.925781zm0 0" fill="url(#m)"/><path d="m456.257812 214.199219-54.902343-16.535157c-37.566407-11.3125-77.632813-11.3125-115.199219 0l-54.902344 16.535157c-8.277344 2.496093-14.929687 8.679687-18.023437 16.75l-26.257813 68.574219c-19.445312 50.78125-3.300781 108.308593 39.726563 141.554687l71.792969 55.472656c26.660156 20.597657 63.867187 20.597657 90.527343 0l71.789063-55.472656c43.03125-33.246094 59.175781-90.773437 39.730468-141.554687l-26.261718-68.574219c-3.089844-8.070313-9.742188-14.253907-18.019532-16.75zm0 0" fill="url(#n)"/><path d="m389.019531 496.550781 71.789063-55.472656c43.03125-33.246094 59.175781-90.773437 39.730468-141.554687l-26.261718-68.574219c-3.089844-8.070313-9.746094-14.253907-18.019532-16.75l-54.902343-16.535157c-18.785157-5.65625-38.191407-8.484374-57.601563-8.484374v322.820312c15.96875 0 31.933594-5.148438 45.265625-15.449219zm0 0" fill="url(#o)"/><path d="m440.296875 233.550781-47.113281-14.191406c-32.238282-9.707031-66.617188-9.707031-98.855469 0l-47.113281 14.191406c-7.101563 2.136719-12.8125 7.445313-15.464844 14.371094l-22.535156 58.84375c-16.6875 43.578125-2.832032 92.945313 34.09375 121.476563l61.605468 47.601562c22.878907 17.675781 54.804688 17.675781 77.683594 0l61.609375-47.601562c36.921875-28.53125 50.777344-77.898438 34.089844-121.476563l-22.535156-58.84375c-2.652344-6.925781-8.363281-12.234375-15.464844-14.371094zm0 0" fill="url(#p)"/><path d="m463.160156 348.875c0-3.328125-.144531-6.625-.410156-9.886719l-45.988281-45.984375c-4.871094-4.871094-12.769531-4.871094-17.640625 0l-66.746094 66.746094c-4.871094 4.871094-12.765625 4.871094-17.640625 0l-26.34375-26.34375c-4.871094-4.871094-12.769531-4.871094-17.640625 0l-11.707031 11.703125c-4.867188 4.871094-4.867188 12.769531 0 17.640625l103.976562 103.972656c56.785157-9.210937 100.140625-58.464844 100.140625-117.847656zm0 0" fill="url(#r)"/><path d="m312.675781 416.378906c6.007813 6.007813 15.75 6.007813 21.761719 0l94.027344-94.03125c4.871094-4.871094 4.871094-12.769531 0-17.640625l-11.703125-11.703125c-4.871094-4.871094-12.769531-4.871094-17.640625 0l-66.746094 66.746094c-4.871094 4.871094-12.769531 4.871094-17.640625 0l-26.347656-26.34375c-4.871094-4.871094-12.765625-4.871094-17.640625 0l-11.703125 11.703125c-4.871094 4.871094-4.871094 12.769531 0 17.640625zm0 0" fill="url(#s)"/><path d="m382.597656 475.84375 61.605469-47.601562c36.925781-28.53125 50.78125-77.894532 34.09375-121.472657l-22.535156-58.847656c-2.652344-6.925781-8.363281-12.234375-15.464844-14.371094l-47.113281-14.191406c-16.117188-4.851563-32.773438-7.28125-49.429688-7.28125v277.023437c13.703125 0 27.402344-4.417968 38.84375-13.257812zm0 0" fill="url(#t)"/></svg>