<svg id="Capa_1" enable-background="new 0 0 510 510" height="512" viewBox="0 0 510 510" width="512" xmlns="http://www.w3.org/2000/svg" xmlns:xlink="http://www.w3.org/1999/xlink"><linearGradient id="lg1"><stop offset="0" stop-color="#fee45a"/><stop offset="1" stop-color="#fea613"/></linearGradient><linearGradient id="SVGID_1_" gradientUnits="userSpaceOnUse" x1="151.448" x2="452.729" xlink:href="#lg1" y1="174.552" y2="475.832"/><linearGradient id="lg2"><stop offset="0" stop-color="#fea613" stop-opacity="0"/><stop offset="1" stop-color="#e94444"/></linearGradient><linearGradient id="SVGID_2_" gradientUnits="userSpaceOnUse" x1="380" x2="284.953" xlink:href="#lg2" y1="307.765" y2="307.765"/><linearGradient id="SVGID_3_" gradientUnits="userSpaceOnUse" x1="255" x2="255" xlink:href="#lg2" y1="375" y2="145.294"/><linearGradient id="SVGID_4_" gradientUnits="userSpaceOnUse" x1="255" x2="255" xlink:href="#lg2" y1="431.648" y2="518.657"/><linearGradient id="lg3"><stop offset="0" stop-color="#fedbbd"/><stop offset="1" stop-color="#fd3581"/></linearGradient><linearGradient id="SVGID_5_" gradientUnits="userSpaceOnUse" x1="121.776" x2="186.472" xlink:href="#lg3" y1="10.821" y2="130.41"/><linearGradient id="lg4"><stop offset="0" stop-color="#fe646f" stop-opacity="0"/><stop offset=".2966" stop-color="#fc616a" stop-opacity=".297"/><stop offset=".6214" stop-color="#f5575d" stop-opacity=".621"/><stop offset=".9585" stop-color="#eb4747" stop-opacity=".959"/><stop offset="1" stop-color="#e94444"/></linearGradient><linearGradient id="SVGID_6_" gradientUnits="userSpaceOnUse" x1="116.208" x2="183.596" xlink:href="#lg4" y1="93.467" y2="31.213"/><linearGradient id="SVGID_7_" gradientTransform="matrix(-1 0 0 1 665.128 0)" gradientUnits="userSpaceOnUse" x1="276.904" x2="341.6" xlink:href="#lg3" y1="10.821" y2="130.41"/><linearGradient id="SVGID_8_" gradientTransform="matrix(-1 0 0 1 665.128 0)" gradientUnits="userSpaceOnUse" x1="271.336" x2="338.724" xlink:href="#lg4" y1="93.467" y2="31.213"/><linearGradient id="SVGID_9_" gradientUnits="userSpaceOnUse" x1="206.672" x2="302.671" xlink:href="#lg1" y1="35.653" y2="267.653"/><linearGradient id="SVGID_10_" gradientUnits="userSpaceOnUse" x1="369" x2="271.995" xlink:href="#lg2" y1="152.45" y2="152.45"/><linearGradient id="SVGID_11_" gradientUnits="userSpaceOnUse" x1="255" x2="255" xlink:href="#lg2" y1="170" y2="247.162"/><linearGradient id="SVGID_12_" gradientUnits="userSpaceOnUse" x1="227.27" x2="307.949" xlink:href="#lg3" y1="124.717" y2="205.397"/><linearGradient id="SVGID_13_" gradientUnits="userSpaceOnUse" x1="402.001" x2="247.892" xlink:href="#lg2" y1="400.666" y2="246.557"/><linearGradient id="SVGID_14_" gradientUnits="userSpaceOnUse" x1="78.731" x2="335.217" xlink:href="#lg3" y1="240.138" y2="399.13"/><linearGradient id="SVGID_15_" gradientUnits="userSpaceOnUse" x1="255" x2="255" xlink:href="#lg4" y1="416" y2="162.86"/><linearGradient id="SVGID_16_" gradientUnits="userSpaceOnUse" x1="310.522" x2="272.022" xlink:href="#lg4" y1="451.87" y2="335.37"/><linearGradient id="lg5"><stop offset="0" stop-color="#8ac9fe"/><stop offset="1" stop-color="#814aa0"/></linearGradient><linearGradient id="SVGID_17_" gradientUnits="userSpaceOnUse" x1="185.007" x2="362.674" xlink:href="#lg5" y1="182.572" y2="360.239"/><linearGradient id="SVGID_18_" gradientUnits="userSpaceOnUse" x1="333.236" x2="145.482" xlink:href="#lg5" y1="330.802" y2="143.048"/><linearGradient id="SVGID_19_" gradientUnits="userSpaceOnUse" x1="205.341" x2="302.575" xlink:href="#lg5" y1="202.906" y2="300.141"/><linearGradient id="lg6"><stop offset="0" stop-color="#5b3374" stop-opacity="0"/><stop offset="1" stop-color="#5b3374"/></linearGradient><linearGradient id="SVGID_20_" gradientUnits="userSpaceOnUse" x1="255" x2="255" xlink:href="#lg6" y1="280.42" y2="388.439"/><linearGradient id="SVGID_21_" gradientUnits="userSpaceOnUse" x1="306.083" x2="232.184" xlink:href="#lg6" y1="291.607" y2="249.921"/><linearGradient id="SVGID_22_" gradientUnits="userSpaceOnUse" x1="258.095" x2="193.921" xlink:href="#lg6" y1="269.491" y2="238.428"/><linearGradient id="SVGID_23_" gradientUnits="userSpaceOnUse" x1="337.914" x2="260.076" xlink:href="#lg6" y1="310.555" y2="264.861"/><linearGradient id="SVGID_24_" gradientUnits="userSpaceOnUse" x1="202.95" x2="245.01" y1="251.24" y2="251.24"><stop offset="0" stop-color="#eaf6ff"/><stop offset="1" stop-color="#b3dafe"/></linearGradient><g><path d="m413.945 510h-317.89c-18.215 0-33.485-13.766-35.366-31.884l-38.689-372.583h466l-38.689 372.583c-1.881 18.118-17.151 31.884-35.366 31.884z" fill="url(#SVGID_1_)"/><path d="m488 105.53-11.75 113.18-26.94 259.41c-1.88 18.11-17.15 31.88-35.37 31.88h-158.94v-404.47z" fill="url(#SVGID_2_)"/><path d="m488 105.53-38.69 372.59c-1.88 18.11-17.15 31.88-35.37 31.88h-88.92l-291.27-291.27-11.75-113.2z" fill="url(#SVGID_3_)"/><path d="m50.235 377.44 10.454 100.676c1.882 18.118 17.151 31.884 35.366 31.884h317.889c18.215 0 33.485-13.766 35.366-31.884l10.454-100.676z" fill="url(#SVGID_4_)"/><g><g><path d="m255 89.579c0 41.189-185 41.189-185 0s31.815-89.579 71.061-89.579 113.939 48.39 113.939 89.579z" fill="url(#SVGID_5_)"/><path d="m197.63 97.015c0-31.274-56.713-68.015-86.511-68.015-9.83 0-19.037 4.014-26.974 10.495-8.883 15.393-14.145 33.334-14.145 50.084 0 17.792 34.52 27.897 73.736 30.318 28.901-2.063 53.894-9.69 53.894-22.882z" fill="url(#SVGID_6_)"/></g><g><path d="m255 89.579c0 41.189 185 41.189 185 0s-31.815-89.579-71.061-89.579-113.939 48.39-113.939 89.579z" fill="url(#SVGID_7_)"/><path d="m312.37 97.015c0-31.274 56.713-68.015 86.511-68.015 9.83 0 19.037 4.014 26.974 10.495 8.883 15.393 14.145 33.334 14.145 50.084 0 17.792-34.52 27.897-73.736 30.318-28.901-2.063-53.894-9.69-53.894-22.882z" fill="url(#SVGID_8_)"/></g></g><path d="m475.084 218.727h-440.168c-19.283 0-34.916-15.632-34.916-34.916v-62.727c0-19.284 15.633-34.917 34.916-34.917h440.167c19.284 0 34.916 15.633 34.916 34.916v62.727c.001 19.285-15.632 34.917-34.915 34.917z" fill="url(#SVGID_9_)"/><path d="m510 121.08v62.73c0 18.89-15 34.28-33.75 34.9-.39.01-.78.02-1.17.02h-220.08v-132.56h220.08c19.29 0 34.92 15.63 34.92 34.91z" fill="url(#SVGID_10_)"/><path d="m0 152.447v31.364c0 19.284 15.633 34.916 34.916 34.916h440.167c19.284 0 34.916-15.633 34.916-34.916v-31.364z" fill="url(#SVGID_11_)"/><path d="m288.443 222.78h-66.886c-6.441 0-11.662-5.221-11.662-11.662v-117.342c0-6.441 5.221-11.662 11.662-11.662h66.886c6.441 0 11.662 5.221 11.662 11.662v117.342c0 6.441-5.221 11.662-11.662 11.662z" fill="url(#SVGID_12_)"/><path d="m347.5 185.587-185 136.156 188.257 188.257h63.188c18.215 0 33.485-13.766 35.366-31.884l17.941-172.777z" fill="url(#SVGID_13_)"/><path d="m288.443 510h-66.886c-6.441 0-11.662-5.221-11.662-11.662v-297.868c0-6.441 5.221-11.662 11.662-11.662h66.886c6.441 0 11.662 5.221 11.662 11.662v297.867c0 6.442-5.221 11.663-11.662 11.663z" fill="url(#SVGID_14_)"/><path d="m288.443 188.808h-66.886c-6.441 0-11.662 5.221-11.662 11.662v194.405l90.21 90.21v-284.615c0-6.44-5.221-11.662-11.662-11.662z" fill="url(#SVGID_15_)"/><path d="m300.1 200.47v258.87l-90.2-90.2v-168.67c0-6.44 5.22-11.66 11.66-11.66h66.88c6.44 0 11.66 5.22 11.66 11.66z" fill="url(#SVGID_16_)"/><g><path d="m365.225 265.626-10.438 10.623c-4.1 4.173-6.003 10.029-5.138 15.815l2.201 14.724c1.503 10.057-5.334 19.463-15.365 21.135l-14.677 2.447c-5.781.964-10.772 4.592-13.473 9.793l-6.844 13.181c-4.691 9.035-15.766 12.633-24.872 8.08l-13.286-6.643c-5.246-2.623-11.421-2.623-16.668 0l-13.286 6.643c-9.106 4.553-20.18.956-24.871-8.08l-6.844-13.181c-2.701-5.202-7.692-8.829-13.473-9.793l-14.676-2.447c-10.031-1.672-16.868-11.078-15.365-21.135l2.201-14.723c.865-5.786-1.038-11.642-5.138-15.815l-10.438-10.623c-7.124-7.25-7.124-18.871 0-26.121l10.438-10.623c4.1-4.173 6.003-10.029 5.138-15.815l-2.201-14.724c-1.503-10.057 5.334-19.463 15.365-21.135l14.677-2.447c5.781-.964 10.772-4.592 13.473-9.793l6.844-13.18c4.691-9.035 15.766-12.633 24.872-8.08l13.286 6.643c5.246 2.623 11.421 2.623 16.668 0l13.286-6.643c9.106-4.553 20.18-.956 24.872 8.08l6.844 13.181c2.701 5.202 7.692 8.829 13.473 9.793l14.677 2.447c10.031 1.672 16.868 11.078 15.365 21.135l-2.201 14.723c-.865 5.786 1.038 11.642 5.138 15.815l10.438 10.623c7.122 7.249 7.122 18.87-.002 26.12z" fill="url(#SVGID_17_)"/><circle cx="255" cy="252.566" fill="url(#SVGID_18_)" r="82.637"/><circle cx="255" cy="252.566" fill="url(#SVGID_19_)" r="70.488"/><path d="m155.213 276.249c4.1 4.173 6.003 10.029 5.138 15.815l-2.201 14.723c-1.503 10.057 5.334 19.463 15.365 21.135l14.676 2.447c5.781.964 10.772 4.592 13.473 9.793l6.844 13.181c4.691 9.035 15.766 12.633 24.871 8.079l13.286-6.643c5.246-2.623 11.421-2.623 16.668 0l13.286 6.643c9.106 4.553 20.18.956 24.872-8.08l6.844-13.18c2.701-5.202 7.692-8.829 13.473-9.793l14.677-2.447c10.031-1.672 16.868-11.078 15.365-21.135l-2.201-14.724c-.865-5.786 1.038-11.642 5.138-15.815l10.438-10.623c3.562-3.625 5.343-8.343 5.343-13.06h-231.136c0 4.718 1.781 9.435 5.343 13.06z" fill="url(#SVGID_20_)"/><g><path d="m321.808 330.369 14.677-2.447c10.031-1.672 16.868-11.078 15.365-21.135l-2.201-14.724c-.865-5.786 1.038-11.642 5.138-15.815l2.491-2.535c.258-1.524.768-3.014 1.548-4.396l-70.604-70.604c-1.441-2.641-4.559-4.246-7.454-4.246-2.523 0-4.767 1.122-5.888 3.505l-49.21 101.083c-.421.841-.701 1.823-.701 2.664 0 2.424 1.478 5.048 3.965 6.437l55.216 55.216c7.017.299 13.898-3.398 17.341-10.029l6.844-13.18c2.701-5.202 7.692-8.83 13.473-9.794z" fill="url(#SVGID_21_)"/><path d="m350.905 315.984-108.736-108.735c-3.725-5.006-10.166-7.033-17.621-7.033-11.917 0-21.03 5.047-21.03 18.926v19.908c0 7.161 2.43 11.966 6.416 14.945l94.22 94.22 4.181-8.053c2.701-5.202 7.692-8.829 13.473-9.793l14.677-2.447c6.83-1.138 12.176-5.864 14.42-11.938z" fill="url(#SVGID_22_)"/><path d="m288.78 245.218c-11.916 0-21.03 5.047-21.03 18.927v19.908c0 7.161 2.43 11.966 6.415 14.944l37.067 37.067c2.771-2.979 6.472-5.011 10.576-5.695l14.677-2.447c10.031-1.672 16.868-11.078 15.365-21.135l-1.597-10.685-43.852-43.851c-3.725-5.006-10.166-7.033-17.621-7.033z" fill="url(#SVGID_23_)"/><g><path d="m202.95 238.482v-19.908c0-13.88 9.113-18.927 21.03-18.927 11.777 0 21.03 5.047 21.03 18.927v19.908c0 13.88-9.254 18.927-21.03 18.927-11.917 0-21.03-5.047-21.03-18.927zm28.04-19.908c0-4.626-2.664-6.73-7.01-6.73s-6.869 2.103-6.869 6.73v19.908c0 4.626 2.523 6.73 6.869 6.73 4.347 0 7.01-2.103 7.01-6.73zm57.481-17.245c0 .841-.14 1.823-.561 2.664l-49.35 101.083c-.982 2.103-3.645 3.505-6.309 3.505-4.767 0-7.851-3.925-7.851-7.431 0-.841.281-1.823.701-2.664l49.209-101.083c1.122-2.383 3.365-3.505 5.888-3.505 3.926.001 8.273 2.945 8.273 7.431zm-21.17 82.297v-19.908c0-13.88 9.113-18.927 21.03-18.927 11.777 0 21.03 5.047 21.03 18.927v19.908c0 13.88-9.253 18.927-21.03 18.927-11.917-.001-21.03-5.048-21.03-18.927zm28.039-19.908c0-4.626-2.664-6.73-7.01-6.73s-6.87 2.103-6.87 6.73v19.908c0 4.627 2.524 6.729 6.87 6.729s7.01-2.103 7.01-6.729z" fill="url(#SVGID_24_)"/></g></g></g></g></svg>