<svg id="Capa_1" enable-background="new 0 0 510 510" height="512" viewBox="0 0 510 510" width="512" xmlns="http://www.w3.org/2000/svg" xmlns:xlink="http://www.w3.org/1999/xlink"><linearGradient id="lg1"><stop offset="0" stop-color="#eaf6ff"/><stop offset="1" stop-color="#b3dafe"/></linearGradient><linearGradient id="SVGID_1_" gradientUnits="userSpaceOnUse" x1="102.561" x2="488.431" xlink:href="#lg1" y1="145.993" y2="531.863"/><linearGradient id="lg2"><stop offset="0" stop-color="#d8ecfe" stop-opacity="0"/><stop offset="1" stop-color="#678d98"/></linearGradient><linearGradient id="SVGID_2_" gradientUnits="userSpaceOnUse" x1="415.411" x2="415.411" xlink:href="#lg2" y1="254.667" y2="108.174"/><linearGradient id="lg3"><stop offset="0" stop-color="#5a5a5a"/><stop offset="1" stop-color="#444"/></linearGradient><linearGradient id="SVGID_3_" gradientUnits="userSpaceOnUse" x1="89.692" x2="168.226" xlink:href="#lg3" y1="133.124" y2="211.658"/><linearGradient id="SVGID_4_" gradientUnits="userSpaceOnUse" x1="89.692" x2="168.226" xlink:href="#lg3" y1="371.859" y2="450.394"/><linearGradient id="SVGID_5_" gradientUnits="userSpaceOnUse" x1="328.427" x2="406.962" xlink:href="#lg3" y1="133.124" y2="211.658"/><linearGradient id="SVGID_6_" gradientUnits="userSpaceOnUse" x1="458.38" x2="383.519" y1="202.288" y2="127.427"><stop offset="0" stop-color="#433f43" stop-opacity="0"/><stop offset="1" stop-color="#1a1a1a"/></linearGradient><linearGradient id="SVGID_7_" gradientUnits="userSpaceOnUse" x1="209.121" x2="256.897" xlink:href="#lg3" y1="179.129" y2="179.129"/><linearGradient id="SVGID_8_" gradientUnits="userSpaceOnUse" x1="256.897" x2="304.672" xlink:href="#lg3" y1="226.905" y2="226.905"/><linearGradient id="SVGID_9_" gradientUnits="userSpaceOnUse" x1="304.672" x2="400.224" xlink:href="#lg3" y1="274.68" y2="274.68"/><linearGradient id="SVGID_10_" gradientUnits="userSpaceOnUse" x1="113.569" x2="400.224" xlink:href="#lg3" y1="322.456" y2="322.456"/><linearGradient id="SVGID_11_" gradientUnits="userSpaceOnUse" x1="233.009" x2="233.009" xlink:href="#lg2" y1="429.418" y2="528.323"/><linearGradient id="SVGID_12_" gradientUnits="userSpaceOnUse" x1="351.666" x2="424.989" xlink:href="#lg1" y1="395.649" y2="468.972"/><linearGradient id="SVGID_13_" gradientUnits="userSpaceOnUse" x1="318.333" x2="450.416" y1="-27.667" y2="104.416"><stop offset="0" stop-color="#b3dafe"/><stop offset="1" stop-color="#4fc123"/></linearGradient><linearGradient id="SVGID_14_" gradientUnits="userSpaceOnUse" x1="428" x2="428" y1="103" y2="175"><stop offset="0" stop-color="#02905d" stop-opacity="0"/><stop offset=".4554" stop-color="#028a58" stop-opacity=".455"/><stop offset="1" stop-color="#017b4e"/></linearGradient><linearGradient id="SVGID_15_" gradientUnits="userSpaceOnUse" x1="497.902" x2="446.388" y1="140.098" y2="88.585"><stop offset="0" stop-color="#4fc123" stop-opacity="0"/><stop offset="1" stop-color="#017b4e"/></linearGradient><linearGradient id="SVGID_16_" gradientUnits="userSpaceOnUse" x1="398.217" x2="473.044" xlink:href="#lg1" y1="40.416" y2="115.244"/><g><g><path d="m350.037 510h-321.3c-15.871 0-28.737-12.866-28.737-28.738v-409.643c0-15.872 12.866-28.738 28.738-28.738h408.542c15.871 0 28.738 12.867 28.738 28.738v322.401c-.001 64.054-51.927 115.98-115.981 115.98z" fill="url(#SVGID_1_)"/><path d="m466.017 235.465v-163.846c0-10.459-5.589-19.611-13.941-24.638l-87.271 87.271z" fill="url(#SVGID_2_)"/><g><path d="m145.504 204.92h-63.727c-8.828 0-15.984-7.156-15.984-15.984v-63.727c0-8.828 7.156-15.984 15.984-15.984h63.727c8.828 0 15.984 7.156 15.984 15.984v63.727c0 8.828-7.156 15.984-15.984 15.984z" fill="url(#SVGID_3_)"/><path d="m145.504 443.656h-63.727c-8.828 0-15.984-7.156-15.984-15.984v-63.727c0-8.828 7.156-15.984 15.984-15.984h63.727c8.828 0 15.984 7.156 15.984 15.984v63.727c0 8.827-7.156 15.984-15.984 15.984z" fill="url(#SVGID_4_)"/><path d="m384.24 204.92h-63.727c-8.828 0-15.984-7.156-15.984-15.984v-63.727c0-8.828 7.156-15.984 15.984-15.984h63.727c8.828 0 15.984 7.156 15.984 15.984v63.727c0 8.828-7.156 15.984-15.984 15.984z" fill="url(#SVGID_5_)"/><path d="m400.224 169.672v-44.463c0-7.139-4.683-13.181-11.143-15.233l-24.276 24.276z" fill="url(#SVGID_6_)"/><g><path d="m249.08 155.241h-32.142c-4.317 0-7.817 3.5-7.817 7.817v32.142c0 4.317 3.5 7.817 7.817 7.817h32.142c4.317 0 7.817-3.5 7.817-7.817v-32.142c-.001-4.317-3.5-7.817-7.817-7.817z" fill="url(#SVGID_7_)"/><path d="m304.672 242.976v-32.142c0-4.317-3.5-7.817-7.817-7.817h-32.142c-4.317 0-7.817 3.5-7.817 7.817v32.142c0 4.317 3.5 7.817 7.817 7.817h32.142c4.317-.001 7.817-3.5 7.817-7.817z" fill="url(#SVGID_8_)"/><path d="m352.448 298.568h39.959c4.317 0 7.817-3.5 7.817-7.817v-32.142c0-4.317-3.5-7.817-7.817-7.817h-39.959-39.959c-4.317 0-7.817 3.5-7.817 7.817v32.142c0 4.317 3.5 7.817 7.817 7.817z" fill="url(#SVGID_9_)"/><path d="m264.713 298.568c-4.317 0-7.817 3.5-7.817 7.817v39.959 39.959c0 4.317-3.5 7.817-7.817 7.817h-32.142c-4.317 0-7.817-3.5-7.817-7.817v-39.959-39.959c0-4.317 3.5-7.817 7.817-7.817h32.142c4.317 0 7.817-3.5 7.817-7.817v-32.142c0-4.317-3.5-7.817-7.817-7.817h-32.142c-4.317 0-7.817-3.5-7.817-7.817v-32.142c0-4.317-3.5-7.817-7.817-7.817h-32.142c-4.317 0-7.817 3.5-7.817 7.817v32.142c0 4.317-3.5 7.817-7.817 7.817h-32.142c-4.317 0-7.817 3.5-7.817 7.817v32.142c0 4.317 3.5 7.817 7.817 7.817h32.142c4.317 0 7.817 3.5 7.817 7.817v39.959 39.959c0 4.317 3.5 7.817 7.817 7.817h32.142c4.317 0 7.817 3.5 7.817 7.817v32.142c0 4.317 3.5 7.817 7.817 7.817h32.142c4.317 0 7.817-3.5 7.817-7.817v-32.142c0-4.317 3.5-7.817 7.817-7.817h39.959 47.776 39.959c4.317 0 7.817-3.5 7.817-7.817v-32.142c0-4.317-3.5-7.817-7.817-7.817h-39.959-39.959c-4.317 0-7.817-3.5-7.817-7.817v-32.142c0-4.317-3.5-7.817-7.817-7.817z" fill="url(#SVGID_10_)"/></g></g><path d="m0 299.399v181.863c0 15.872 12.866 28.738 28.738 28.738h321.3c64.054 0 115.98-51.926 115.98-115.98v-94.621z" fill="url(#SVGID_11_)"/><path d="m350.037 510v-87.242c0-15.871 12.867-28.738 28.738-28.738h87.242c0 64.054-51.926 115.98-115.98 115.98z" fill="url(#SVGID_12_)"/></g><g><g><circle cx="428" cy="82" fill="url(#SVGID_13_)" r="82"/><path d="m346.025 83c.538 44.825 37.023 81 81.975 81s81.436-36.175 81.975-81z" fill="url(#SVGID_14_)"/></g><path d="m405.15 127.08 35.876 35.879c39.095-6.242 68.974-40.106 68.974-80.959 0-3.454-.238-6.851-.653-10.193l-24.467-24.467z" fill="url(#SVGID_15_)"/><path d="m489.47 60.264-66.818 66.818c-4.834 4.834-12.672 4.834-17.506 0l-38.616-38.616c-2.301-2.301-2.301-6.031 0-8.331l16.915-16.915c2.301-2.301 6.031-2.301 8.332 0l20.819 20.819c.72.72 1.887.72 2.607 0l49.021-49.021c2.301-2.301 6.031-2.301 8.332 0l16.915 16.915c2.3 2.3 2.3 6.03-.001 8.331z" fill="url(#SVGID_16_)"/></g></g></svg>