<?xml version="1.0" encoding="UTF-8"?><svg xmlns="http://www.w3.org/2000/svg" viewBox="0 0 376.61 221.17"><defs><style>.e{fill:#ffcd00;}.f{fill:#ff000f;}.g{fill:#ff7a00;}.h{fill:#aa0016;}</style></defs><g id="a"/><g id="b"><g id="c"><g id="d"><path class="g" d="M370.14,22.23h-98.75c-6.45,0-12.19,4.08-14.31,10.17-4.71,13.5-10.01,28.73-15.48,44.43h0c-.17,.49-.34,.98-.51,1.46l-.35,1.01c-17.07,48.99-35.56,102.04-42.59,122.13-.82,2.5-1.75,5.36-2.88,8.29-.2,.52-1.17,3-2.96,5.44-.3,.42-.61,.8-.91,1.15-.52,.62-1.18,1.35-2.14,2.1-.05,.04-.11,.08-.16,.12-.33,.26-.7,.52-1.13,.79-1.05,.64-1.95,.98-2.29,1.1-.05,.02-.1,.03-.15,.05,0,0-.02,0-.02,0-.03,0-.06,.02-.09,.03-.02,0-.04,.02-.07,.02-1.27,.42-2.43,.6-3.38,.65h118.69c.77,0,1.53-.09,2.27-.28,2.89-.74,9.06-3.42,11.66-12.95L376.25,30.82c1.46-4.2-1.66-8.59-6.11-8.59"/><path class="f" d="M77.92,187.55c.03-.07,.05-.14,.08-.22l.23-.64c.12-.35,.24-.7,.37-1.04,.16-.48,.33-.95,.5-1.43,.21-.6,.42-1.19,.62-1.79,.25-.71,.5-1.41,.75-2.12,.29-.81,.57-1.62,.86-2.44,.32-.91,.64-1.82,.96-2.73l1.06-3.01c.38-1.09,.76-2.18,1.14-3.26,.41-1.16,.82-2.33,1.23-3.5l1.3-3.7c.45-1.3,.91-2.59,1.36-3.89,.48-1.35,.95-2.7,1.43-4.06,.49-1.4,.98-2.8,1.48-4.2,.51-1.45,1.01-2.89,1.52-4.33,.52-1.48,1.04-2.96,1.55-4.43,.53-1.5,1.05-3.01,1.59-4.52,.54-1.52,1.07-3.05,1.61-4.57,.54-1.54,1.08-3.08,1.62-4.61,.54-1.54,1.08-3.09,1.62-4.63l1.62-4.62,1.62-4.6c.53-1.52,1.06-3.03,1.6-4.55,.52-1.5,1.05-2.99,1.57-4.48,.51-1.46,1.02-2.93,1.54-4.39,.5-1.43,1-2.86,1.5-4.28,.48-1.38,.97-2.77,1.46-4.15,.46-1.33,.93-2.66,1.4-4,.45-1.27,.89-2.55,1.34-3.82,.43-1.21,.85-2.42,1.27-3.62l1.2-3.41c.37-1.05,.74-2.11,1.11-3.17l1.02-2.9c.3-.88,.61-1.75,.92-2.62,.27-.77,.54-1.54,.81-2.32,.23-.66,.46-1.33,.7-1.99,.19-.55,.39-1.1,.58-1.65,.31-.89,.59-1.81,1.01-2.66l.04-.04h.02v-.03l.03-.02c.08-.16,.11-.3,.21-.46,.82-1.8,2.97-3.74,3.85-4.02l-13.37-44.94c-1.67-5.72-7.16-9.65-12.88-9.65H6.64C2.2,0-.98,4.27,.28,8.53L53.38,186.98c2.2,6.33,6.95,9.62,11.82,9.86h0c5.06,.22,10.22-2.87,12.71-9.29"/><path class="h" d="M164.03,196.09c-.22-.74-.44-1.48-.66-2.22-.11-.38-.22-.76-.34-1.14l-22.75-76.45-15.91-53.46c-.59-2-.39-3.99,.45-5.62,.2-.39,.44-.76,.72-1.11,.03-.04,.06-.09,.09-.13,.39-.46,.84-.88,1.36-1.23,.05-.04,.12-.07,.18-.11l.04-.02c-.88,.27-3.04,2.21-3.85,4.02-.09,.16-.18,.32-.26,.48-.01,.02-.02,.05-.04,.07-.42,.86-.7,1.77-1.01,2.66-.19,.55-.39,1.1-.58,1.65-.23,.66-.46,1.33-.7,1.99-.27,.77-.54,1.55-.81,2.32-.31,.88-.61,1.75-.92,2.62l-1.02,2.9c-.37,1.05-.74,2.11-1.11,3.17l-1.2,3.41c-.43,1.21-.85,2.41-1.27,3.62-.45,1.27-.89,2.54-1.34,3.82-.47,1.33-.94,2.66-1.4,4-.48,1.39-.97,2.77-1.46,4.15-.5,1.43-1,2.86-1.5,4.28-.51,1.46-1.03,2.93-1.54,4.39-.53,1.5-1.05,2.99-1.57,4.48-.54,1.52-1.07,3.04-1.6,4.55l-1.62,4.6-1.62,4.62c-.54,1.54-1.08,3.09-1.62,4.63-.54,1.54-1.08,3.07-1.62,4.61l-1.61,4.57c-.53,1.51-1.06,3.01-1.59,4.52-.52,1.48-1.04,2.95-1.55,4.43-.51,1.44-1.01,2.88-1.52,4.33-.49,1.4-.98,2.8-1.48,4.2-.47,1.36-.95,2.71-1.43,4.06-.45,1.3-.91,2.6-1.36,3.89l-1.3,3.7c-.41,1.16-.82,2.33-1.23,3.5-.38,1.09-.76,2.18-1.14,3.26l-1.05,3.01c-.32,.91-.64,1.82-.96,2.73-.29,.82-.57,1.63-.86,2.44-.25,.71-.5,1.42-.75,2.12-.21,.6-.42,1.19-.62,1.79-.17,.47-.34,.95-.5,1.43-.12,.35-.25,.7-.37,1.04l-.23,.64c-.03,.07-.05,.14-.08,.22-2.49,6.43-7.65,9.51-12.71,9.29h0c-.09,.01-.19,.02-.28,.02h99.34c-.07-.26-.15-.52-.23-.77"/><path class="e" d="M241.61,76.82c-.85-3.07-1.69-6.14-2.5-9.21-.67-2.53-1.46-4.98-2.82-7.23-1.34-2.21-3.15-4.12-5.42-5.38-.63-.35-1.29-.65-1.97-.89-1.07-.38-2.89-.65-4.03-.65h-93.51c-1.63,0-3.03,.43-4.16,1.14-.01,0-.02,.01-.03,.02-.06,.04-.12,.07-.18,.11-.52,.35-.96,.77-1.36,1.23-.04,.04-.06,.09-.09,.13-.28,.34-.52,.71-.72,1.11-.84,1.64-1.04,3.63-.45,5.62l15.91,53.46,22.76,76.45,1.14,3.82,4.32,15.06c.28,.8,2.57,7.02,8.88,8.98,3.1,.96,5.82,.49,7.21,.13,.21-.05,.47-.12,.77-.21,.02,0,.05-.02,.07-.02l.12-.04c.05-.02,.1-.04,.15-.05,.35-.12,1.24-.45,2.29-1.1,.43-.26,.8-.53,1.14-.79,.68-.53,1.18-1.03,1.56-1.41,.25-.25,.5-.52,.74-.8,.3-.35,.61-.73,.91-1.15,1.79-2.45,2.76-4.93,2.96-5.45,1.13-2.93,2.07-5.79,2.88-8.29,.45-1.37,.86-2.64,1.25-3.75l2.94-8.43c1.23-3.53,2.46-7.06,3.7-10.59,1.42-4.07,2.84-8.13,4.26-12.2,1.54-4.41,3.08-8.83,4.62-13.25,1.6-4.57,3.2-9.15,4.8-13.73l4.77-13.66,4.54-13.02c1.38-3.95,2.75-7.89,4.13-11.83,1.18-3.36,2.35-6.71,3.52-10.07,.9-2.58,1.8-5.16,2.7-7.75,.45-1.29,.9-2.57,1.35-3.86l.35-1.01c.17-.48,.34-.97,.51-1.46h0"/></g></g></g></svg>